<svg id="svg" version="1.1" xmlns="http://www.w3.org/2000/svg" xmlns:xlink="http://www.w3.org/1999/xlink" width="400" height="231.2267657992565" viewBox="0, 0, 400,231.2267657992565"><g id="svgg"><path id="path0" d="M65.818 1.156 C 65.735 1.538,65.518 1.851,65.337 1.851 C 65.116 1.851,65.009 2.115,65.009 2.660 C 65.009 3.226,64.904 3.470,64.662 3.470 C 64.471 3.470,64.315 3.615,64.315 3.792 C 64.315 3.970,64.158 4.175,63.968 4.248 C 63.777 4.321,63.621 4.645,63.621 4.967 C 63.621 5.333,63.491 5.552,63.274 5.552 C 63.031 5.552,62.927 5.797,62.927 6.362 C 62.927 7.018,62.838 7.172,62.464 7.172 C 62.104 7.172,62.001 7.326,62.001 7.866 C 62.001 8.329,61.885 8.560,61.654 8.560 C 61.463 8.560,61.307 8.705,61.307 8.882 C 61.307 9.059,61.151 9.264,60.960 9.338 C 60.757 9.415,60.613 9.762,60.613 10.172 C 60.613 10.641,60.498 10.873,60.266 10.873 C 60.035 10.873,59.919 11.105,59.919 11.567 C 59.919 12.030,59.803 12.261,59.572 12.261 C 59.381 12.261,59.225 12.461,59.225 12.705 C 59.225 13.395,58.976 13.881,58.622 13.881 C 58.445 13.881,58.300 14.037,58.300 14.228 C 58.300 14.419,58.143 14.575,57.953 14.575 C 57.721 14.575,57.606 14.806,57.606 15.269 C 57.606 15.732,57.490 15.963,57.259 15.963 C 57.016 15.963,56.912 16.207,56.912 16.773 C 56.912 17.338,56.807 17.582,56.564 17.582 C 56.333 17.582,56.217 17.814,56.217 18.276 C 56.217 18.675,56.094 18.972,55.928 18.975 C 55.431 18.981,54.598 20.049,54.598 20.680 C 54.598 21.063,54.471 21.284,54.251 21.284 C 54.020 21.284,53.904 21.515,53.904 21.978 C 53.904 22.441,53.788 22.672,53.557 22.672 C 53.364 22.672,53.210 22.878,53.210 23.135 C 53.210 23.392,53.056 23.597,52.863 23.597 C 52.635 23.597,52.516 23.826,52.516 24.265 C 52.516 24.737,52.381 24.967,52.053 25.053 C 51.741 25.134,51.591 25.368,51.591 25.774 C 51.591 26.153,51.463 26.374,51.243 26.374 C 51.001 26.374,50.896 26.618,50.896 27.183 C 50.896 27.749,50.792 27.993,50.549 27.993 C 50.359 27.993,50.202 28.149,50.202 28.340 C 50.202 28.531,50.046 28.687,49.855 28.687 C 49.624 28.687,49.508 28.918,49.508 29.381 C 49.508 29.844,49.393 30.075,49.161 30.075 C 48.919 30.075,48.814 30.319,48.814 30.885 C 48.814 31.540,48.726 31.695,48.352 31.695 C 47.992 31.695,47.889 31.849,47.889 32.389 C 47.889 32.851,47.773 33.083,47.542 33.083 C 47.351 33.083,47.195 33.242,47.195 33.437 C 47.195 33.632,47.039 33.851,46.848 33.924 C 46.650 34.000,46.501 34.345,46.501 34.727 C 46.501 35.168,46.382 35.396,46.154 35.396 C 45.922 35.396,45.807 35.628,45.807 36.090 C 45.807 36.529,45.688 36.784,45.485 36.784 C 45.131 36.784,44.881 37.270,44.881 37.960 C 44.881 38.204,44.725 38.404,44.534 38.404 C 44.344 38.404,44.187 38.560,44.187 38.751 C 44.187 38.942,44.031 39.098,43.840 39.098 C 43.609 39.098,43.493 39.329,43.493 39.792 C 43.493 40.254,43.378 40.486,43.146 40.486 C 42.904 40.486,42.799 40.730,42.799 41.296 C 42.799 41.861,42.695 42.105,42.452 42.105 C 42.261 42.105,42.105 42.261,42.105 42.452 C 42.105 42.643,41.996 42.799,41.862 42.799 C 41.728 42.799,41.467 43.164,41.281 43.609 C 41.095 44.054,40.840 44.419,40.714 44.419 C 40.589 44.419,40.486 44.731,40.486 45.113 C 40.486 45.575,40.370 45.807,40.139 45.807 C 39.907 45.807,39.792 46.038,39.792 46.501 C 39.792 46.964,39.676 47.195,39.445 47.195 C 39.252 47.195,39.098 47.401,39.098 47.658 C 39.098 47.915,38.944 48.120,38.751 48.120 C 38.522 48.120,38.404 48.349,38.404 48.787 C 38.404 49.260,38.269 49.490,37.941 49.575 C 37.635 49.655,37.478 49.891,37.478 50.272 C 37.478 50.588,37.322 50.907,37.131 50.980 C 36.928 51.058,36.784 51.405,36.784 51.815 C 36.784 52.284,36.669 52.516,36.437 52.516 C 36.246 52.516,36.090 52.672,36.090 52.863 C 36.090 53.054,35.934 53.210,35.743 53.210 C 35.515 53.210,35.396 53.439,35.396 53.879 C 35.396 54.247,35.250 54.605,35.071 54.673 C 34.892 54.742,34.676 55.117,34.590 55.508 C 34.504 55.898,34.286 56.217,34.105 56.217 C 33.925 56.217,33.777 56.381,33.777 56.581 C 33.777 56.781,33.621 57.101,33.430 57.292 C 33.239 57.482,33.083 57.839,33.083 58.085 C 33.083 58.330,32.927 58.531,32.736 58.531 C 32.504 58.531,32.389 58.762,32.389 59.225 C 32.389 59.688,32.273 59.919,32.042 59.919 C 31.810 59.919,31.695 60.150,31.695 60.613 C 31.695 61.082,31.580 61.307,31.340 61.307 C 31.145 61.307,30.917 61.489,30.833 61.712 C 30.748 61.935,30.543 62.254,30.377 62.423 C 30.211 62.591,30.075 62.929,30.075 63.174 C 30.075 63.420,29.919 63.621,29.728 63.621 C 29.500 63.621,29.381 63.849,29.381 64.290 C 29.381 64.671,29.232 65.016,29.034 65.092 C 28.831 65.170,28.687 65.517,28.687 65.927 C 28.687 66.396,28.572 66.628,28.340 66.628 C 28.149 66.628,27.993 66.784,27.993 66.975 C 27.993 67.166,27.842 67.322,27.657 67.322 C 27.455 67.322,27.259 67.647,27.168 68.132 C 27.081 68.596,26.879 68.942,26.695 68.942 C 26.492 68.942,26.374 69.198,26.374 69.636 C 26.374 70.098,26.258 70.330,26.027 70.330 C 25.795 70.330,25.680 70.561,25.680 71.024 C 25.680 71.486,25.564 71.718,25.333 71.718 C 25.140 71.718,24.986 71.923,24.986 72.180 C 24.986 72.435,24.838 72.643,24.657 72.643 C 24.476 72.643,24.262 72.947,24.180 73.318 C 24.099 73.689,23.882 74.050,23.699 74.120 C 23.516 74.191,23.366 74.500,23.366 74.809 C 23.366 75.117,23.210 75.430,23.019 75.503 C 22.828 75.576,22.672 75.784,22.672 75.966 C 22.672 76.147,22.516 76.355,22.325 76.428 C 22.134 76.502,21.978 76.825,21.978 77.147 C 21.978 77.513,21.848 77.733,21.631 77.733 C 21.391 77.733,21.284 77.974,21.284 78.516 C 21.284 79.104,21.169 79.328,20.821 79.419 C 20.509 79.501,20.359 79.735,20.359 80.140 C 20.359 80.519,20.231 80.740,20.012 80.740 C 19.821 80.740,19.665 80.884,19.665 81.059 C 19.665 81.234,19.508 81.507,19.318 81.666 C 19.127 81.824,18.971 82.201,18.971 82.504 C 18.971 82.838,18.835 83.054,18.623 83.054 C 18.392 83.054,18.276 83.285,18.276 83.748 C 18.276 84.211,18.161 84.442,17.929 84.442 C 17.701 84.442,17.582 84.670,17.582 85.109 C 17.582 85.581,17.447 85.811,17.120 85.897 C 16.865 85.964,16.657 86.173,16.657 86.362 C 16.657 86.551,16.501 86.766,16.310 86.839 C 16.119 86.912,15.963 87.236,15.963 87.558 C 15.963 87.924,15.833 88.143,15.616 88.143 C 15.374 88.143,15.269 88.388,15.269 88.953 C 15.269 89.519,15.164 89.763,14.922 89.763 C 14.691 89.763,14.575 89.994,14.575 90.457 C 14.575 90.848,14.452 91.151,14.293 91.151 C 13.844 91.151,12.955 92.328,12.955 92.922 C 12.955 93.250,12.818 93.464,12.608 93.464 C 12.377 93.464,12.261 93.696,12.261 94.158 C 12.261 94.621,12.146 94.853,11.914 94.853 C 11.724 94.853,11.567 95.050,11.567 95.290 C 11.567 95.531,11.411 95.788,11.220 95.862 C 11.029 95.935,10.873 96.258,10.873 96.580 C 10.873 96.932,10.742 97.166,10.545 97.166 C 10.364 97.166,10.149 97.470,10.068 97.841 C 9.986 98.212,9.770 98.573,9.587 98.643 C 9.398 98.715,9.254 99.075,9.254 99.472 C 9.254 99.941,9.139 100.174,8.907 100.174 C 8.716 100.174,8.560 100.319,8.560 100.496 C 8.560 100.673,8.404 100.878,8.213 100.951 C 8.022 101.024,7.866 101.337,7.866 101.645 C 7.866 101.954,7.710 102.266,7.519 102.339 C 7.316 102.417,7.172 102.764,7.172 103.174 C 7.172 103.721,7.070 103.875,6.709 103.875 C 6.349 103.875,6.246 104.029,6.246 104.569 C 6.246 105.032,6.131 105.263,5.899 105.263 C 5.709 105.263,5.552 105.460,5.552 105.701 C 5.552 105.942,5.396 106.199,5.205 106.272 C 5.014 106.345,4.858 106.669,4.858 106.991 C 4.858 107.357,4.728 107.577,4.511 107.577 C 4.280 107.577,4.164 107.808,4.164 108.271 C 4.164 108.709,4.046 108.965,3.843 108.965 C 3.659 108.965,3.457 109.311,3.370 109.774 C 3.279 110.259,3.083 110.584,2.881 110.584 C 2.662 110.584,2.545 110.825,2.545 111.278 C 2.545 111.741,2.429 111.972,2.198 111.972 C 2.007 111.972,1.851 112.169,1.851 112.410 C 1.851 112.651,1.695 112.908,1.504 112.981 C 1.313 113.055,1.157 113.333,1.157 113.601 C 1.157 113.868,1.001 114.244,0.810 114.434 C 0.556 114.688,0.463 115.307,0.463 116.731 C 0.463 118.310,0.529 118.681,0.810 118.681 C 1.041 118.681,1.157 118.913,1.157 119.375 C 1.157 119.838,1.272 120.069,1.504 120.069 C 1.735 120.069,1.851 120.301,1.851 120.763 C 1.851 121.145,1.960 121.457,2.094 121.457 C 2.228 121.457,2.446 121.770,2.579 122.152 C 2.713 122.533,2.908 122.846,3.015 122.846 C 3.121 122.846,3.274 123.054,3.355 123.308 C 3.435 123.563,3.651 123.771,3.833 123.771 C 4.057 123.771,4.164 124.032,4.164 124.581 C 4.164 125.146,4.269 125.390,4.511 125.390 C 4.725 125.390,4.858 125.608,4.858 125.957 C 4.858 126.269,4.989 126.607,5.148 126.709 C 5.307 126.811,5.679 127.389,5.974 127.993 C 6.269 128.597,6.659 129.092,6.841 129.092 C 7.054 129.092,7.172 129.338,7.172 129.786 C 7.172 130.249,7.287 130.480,7.519 130.480 C 7.747 130.480,7.866 130.709,7.866 131.149 C 7.866 131.531,8.015 131.876,8.213 131.952 C 8.404 132.025,8.560 132.244,8.560 132.439 C 8.560 132.634,8.716 132.794,8.907 132.794 C 9.138 132.794,9.254 133.025,9.254 133.488 C 9.254 133.926,9.372 134.182,9.575 134.182 C 9.759 134.182,9.961 134.528,10.048 134.991 C 10.139 135.476,10.335 135.801,10.537 135.801 C 10.756 135.801,10.873 136.042,10.873 136.495 C 10.873 136.958,10.989 137.189,11.220 137.189 C 11.411 137.189,11.567 137.345,11.567 137.536 C 11.567 137.727,11.724 137.883,11.914 137.883 C 12.157 137.883,12.261 138.127,12.261 138.693 C 12.261 139.258,12.366 139.503,12.608 139.503 C 12.826 139.503,12.955 139.722,12.955 140.088 C 12.955 140.410,13.105 140.731,13.288 140.802 C 13.471 140.872,13.686 141.224,13.765 141.585 C 13.844 141.945,14.059 142.298,14.242 142.368 C 14.425 142.438,14.575 142.655,14.575 142.850 C 14.575 143.045,14.731 143.204,14.922 143.204 C 15.153 143.204,15.269 143.436,15.269 143.898 C 15.269 144.361,15.385 144.592,15.616 144.592 C 15.848 144.592,15.963 144.824,15.963 145.294 C 15.963 145.690,16.108 146.050,16.296 146.123 C 16.479 146.193,16.695 146.554,16.777 146.925 C 16.858 147.296,17.073 147.600,17.254 147.600 C 17.435 147.600,17.582 147.756,17.582 147.947 C 17.582 148.138,17.739 148.294,17.929 148.294 C 18.172 148.294,18.276 148.538,18.276 149.104 C 18.276 149.669,18.381 149.913,18.623 149.913 C 18.855 149.913,18.971 150.145,18.971 150.607 C 18.971 151.070,19.086 151.301,19.318 151.301 C 19.508 151.301,19.665 151.502,19.665 151.748 C 19.665 151.993,19.801 152.331,19.967 152.499 C 20.133 152.668,20.338 152.987,20.422 153.210 C 20.506 153.433,20.735 153.615,20.930 153.615 C 21.169 153.615,21.284 153.840,21.284 154.309 C 21.284 154.772,21.400 155.003,21.631 155.003 C 21.863 155.003,21.978 155.235,21.978 155.704 C 21.978 156.114,22.122 156.461,22.325 156.539 C 22.516 156.612,22.672 156.817,22.672 156.994 C 22.672 157.171,22.828 157.316,23.019 157.316 C 23.250 157.316,23.366 157.548,23.366 158.010 C 23.366 158.463,23.483 158.704,23.703 158.704 C 23.904 158.704,24.100 159.029,24.191 159.514 C 24.278 159.978,24.480 160.324,24.664 160.324 C 24.867 160.324,24.986 160.580,24.986 161.018 C 24.986 161.481,25.101 161.712,25.333 161.712 C 25.523 161.712,25.680 161.871,25.680 162.066 C 25.680 162.261,25.836 162.480,26.027 162.554 C 26.224 162.630,26.374 162.975,26.374 163.356 C 26.374 163.797,26.492 164.025,26.721 164.025 C 26.940 164.025,27.068 164.246,27.068 164.625 C 27.068 165.031,27.218 165.265,27.530 165.347 C 27.853 165.431,27.993 165.662,27.993 166.110 C 27.993 166.467,28.147 166.811,28.340 166.885 C 28.531 166.959,28.687 167.178,28.687 167.373 C 28.687 167.568,28.843 167.727,29.034 167.727 C 29.263 167.727,29.381 167.956,29.381 168.396 C 29.381 168.778,29.530 169.123,29.728 169.199 C 29.919 169.272,30.075 169.599,30.075 169.925 C 30.075 170.251,30.231 170.578,30.422 170.651 C 30.613 170.724,30.769 170.929,30.769 171.106 C 30.769 171.284,30.977 171.429,31.232 171.429 C 31.593 171.429,31.695 171.583,31.695 172.130 C 31.695 172.540,31.839 172.886,32.042 172.964 C 32.239 173.040,32.389 173.385,32.389 173.767 C 32.389 174.207,32.507 174.436,32.736 174.436 C 32.953 174.436,33.083 174.655,33.083 175.022 C 33.083 175.344,33.239 175.667,33.430 175.741 C 33.621 175.814,33.777 176.022,33.777 176.203 C 33.777 176.384,33.921 176.588,34.098 176.656 C 34.274 176.724,34.480 177.085,34.555 177.458 C 34.634 177.854,34.838 178.138,35.043 178.138 C 35.281 178.138,35.396 178.364,35.396 178.832 C 35.396 179.294,35.512 179.526,35.743 179.526 C 35.954 179.526,36.090 179.741,36.090 180.076 C 36.090 180.378,36.246 180.755,36.437 180.914 C 36.628 181.072,36.784 181.345,36.784 181.521 C 36.784 181.696,36.940 181.839,37.131 181.839 C 37.361 181.839,37.478 182.069,37.478 182.518 C 37.478 182.993,37.617 183.240,37.941 183.343 C 38.265 183.446,38.404 183.693,38.404 184.168 C 38.404 184.617,38.521 184.847,38.751 184.847 C 38.942 184.847,39.098 185.003,39.098 185.194 C 39.098 185.385,39.254 185.541,39.445 185.541 C 39.677 185.541,39.792 185.773,39.792 186.242 C 39.792 186.652,39.936 186.999,40.139 187.077 C 40.330 187.150,40.486 187.462,40.486 187.771 C 40.486 188.079,40.636 188.389,40.819 188.459 C 41.002 188.529,41.218 188.891,41.300 189.262 C 41.381 189.633,41.596 189.936,41.777 189.936 C 41.957 189.936,42.105 190.145,42.105 190.399 C 42.105 190.656,42.259 190.862,42.452 190.862 C 42.684 190.862,42.799 191.093,42.799 191.556 C 42.799 192.019,42.915 192.250,43.146 192.250 C 43.378 192.250,43.493 192.481,43.493 192.944 C 43.493 193.326,43.588 193.638,43.704 193.638 C 43.820 193.638,44.148 194.120,44.434 194.710 C 44.719 195.300,45.145 195.832,45.380 195.894 C 45.672 195.970,45.807 196.219,45.807 196.680 C 45.807 197.066,45.955 197.411,46.154 197.487 C 46.352 197.563,46.501 197.908,46.501 198.290 C 46.501 198.730,46.619 198.959,46.848 198.959 C 47.039 198.959,47.195 199.115,47.195 199.306 C 47.195 199.497,47.351 199.653,47.542 199.653 C 47.776 199.653,47.889 199.887,47.889 200.369 C 47.889 200.890,48.015 201.117,48.352 201.205 C 48.679 201.291,48.814 201.521,48.814 201.993 C 48.814 202.432,48.933 202.660,49.161 202.660 C 49.393 202.660,49.508 202.892,49.508 203.355 C 49.508 203.817,49.624 204.049,49.855 204.049 C 50.048 204.049,50.202 204.254,50.202 204.511 C 50.202 204.768,50.357 204.974,50.549 204.974 C 50.781 204.974,50.896 205.205,50.896 205.668 C 50.896 206.131,51.012 206.362,51.243 206.362 C 51.434 206.362,51.591 206.562,51.591 206.806 C 51.591 207.495,51.840 207.981,52.194 207.981 C 52.384 207.981,52.516 208.221,52.516 208.567 C 52.516 208.889,52.672 209.213,52.863 209.286 C 53.054 209.359,53.210 209.564,53.210 209.741 C 53.210 209.919,53.366 210.064,53.557 210.064 C 53.799 210.064,53.904 210.308,53.904 210.873 C 53.904 211.439,54.009 211.683,54.251 211.683 C 54.468 211.683,54.598 211.902,54.598 212.269 C 54.598 212.591,54.754 212.914,54.945 212.987 C 55.136 213.061,55.292 213.266,55.292 213.443 C 55.292 213.620,55.500 213.765,55.755 213.765 C 56.129 213.765,56.217 213.919,56.217 214.575 C 56.217 215.140,56.322 215.385,56.564 215.385 C 56.796 215.385,56.912 215.616,56.912 216.079 C 56.912 216.541,57.027 216.773,57.259 216.773 C 57.491 216.773,57.606 217.005,57.606 217.474 C 57.606 217.884,57.750 218.231,57.953 218.308 C 58.143 218.382,58.300 218.587,58.300 218.764 C 58.300 218.941,58.458 219.086,58.652 219.086 C 58.859 219.086,59.063 219.373,59.144 219.780 C 59.220 220.162,59.426 220.474,59.601 220.474 C 59.810 220.474,59.919 220.751,59.919 221.284 C 59.919 221.849,60.024 222.094,60.266 222.094 C 60.483 222.094,60.613 222.313,60.613 222.679 C 60.613 223.001,60.769 223.325,60.960 223.398 C 61.151 223.471,61.307 223.676,61.307 223.854 C 61.307 224.031,61.463 224.176,61.654 224.176 C 61.888 224.176,62.001 224.410,62.001 224.892 C 62.001 225.413,62.127 225.640,62.464 225.728 C 62.792 225.814,62.927 226.044,62.927 226.516 C 62.927 226.955,63.045 227.183,63.274 227.183 C 63.505 227.183,63.621 227.415,63.621 227.877 C 63.621 228.340,63.736 228.571,63.968 228.571 C 64.160 228.571,64.315 228.777,64.315 229.034 C 64.315 229.291,64.469 229.497,64.662 229.497 C 64.893 229.497,65.009 229.728,65.009 230.191 C 65.009 230.654,65.124 230.885,65.356 230.885 C 65.547 230.885,65.703 230.989,65.703 231.116 C 65.703 231.270,88.413 231.348,133.372 231.348 C 178.330 231.348,201.041 231.270,201.041 231.116 C 201.041 230.989,201.200 230.885,201.394 230.885 C 201.601 230.885,201.804 230.598,201.885 230.191 C 201.962 229.809,202.167 229.497,202.342 229.497 C 202.539 229.497,202.660 229.241,202.660 228.828 C 202.660 228.446,202.810 228.101,203.008 228.025 C 203.198 227.952,203.355 227.744,203.355 227.562 C 203.355 227.381,203.511 227.173,203.702 227.100 C 203.892 227.026,204.049 226.703,204.049 226.381 C 204.049 226.015,204.179 225.795,204.396 225.795 C 204.638 225.795,204.743 225.551,204.743 224.986 C 204.743 224.330,204.831 224.176,205.205 224.176 C 205.565 224.176,205.668 224.022,205.668 223.482 C 205.668 223.019,205.784 222.788,206.015 222.788 C 206.206 222.788,206.362 222.643,206.362 222.465 C 206.362 222.288,206.518 222.083,206.709 222.010 C 206.912 221.932,207.056 221.586,207.056 221.176 C 207.056 220.706,207.171 220.474,207.403 220.474 C 207.634 220.474,207.750 220.243,207.750 219.780 C 207.750 219.318,207.866 219.086,208.097 219.086 C 208.325 219.086,208.444 218.858,208.444 218.419 C 208.444 217.947,208.579 217.717,208.907 217.631 C 209.161 217.565,209.370 217.344,209.370 217.141 C 209.370 216.939,209.526 216.773,209.717 216.773 C 209.948 216.773,210.064 216.541,210.064 216.079 C 210.064 215.616,210.179 215.385,210.411 215.385 C 210.653 215.385,210.758 215.140,210.758 214.575 C 210.758 214.009,210.862 213.765,211.105 213.765 C 211.296 213.765,211.452 213.609,211.452 213.418 C 211.452 213.227,211.558 213.071,211.688 213.071 C 211.818 213.071,212.050 212.785,212.204 212.435 C 212.357 212.085,212.615 211.715,212.777 211.614 C 212.939 211.512,213.071 211.122,213.071 210.746 C 213.071 210.294,213.188 210.064,213.418 210.064 C 213.650 210.064,213.765 209.832,213.765 209.370 C 213.765 208.907,213.881 208.676,214.112 208.676 C 214.303 208.676,214.459 208.516,214.459 208.321 C 214.459 208.126,214.615 207.907,214.806 207.834 C 215.004 207.758,215.153 207.413,215.153 207.031 C 215.153 206.586,215.271 206.362,215.506 206.362 C 215.713 206.362,215.916 206.075,215.998 205.668 C 216.074 205.286,216.280 204.974,216.455 204.974 C 216.664 204.974,216.773 204.697,216.773 204.164 C 216.773 203.599,216.877 203.355,217.120 203.355 C 217.311 203.355,217.467 203.198,217.467 203.008 C 217.467 202.817,217.623 202.660,217.814 202.660 C 218.045 202.660,218.161 202.429,218.161 201.966 C 218.161 201.504,218.276 201.272,218.508 201.272 C 218.750 201.272,218.855 201.028,218.855 200.463 C 218.855 199.847,218.952 199.652,219.260 199.650 C 219.508 199.649,219.842 199.269,220.124 198.667 C 220.376 198.128,220.714 197.603,220.875 197.502 C 221.037 197.400,221.168 197.009,221.168 196.634 C 221.168 196.181,221.285 195.951,221.515 195.951 C 221.747 195.951,221.862 195.720,221.862 195.257 C 221.862 194.788,221.977 194.563,222.217 194.563 C 222.411 194.563,222.640 194.381,222.724 194.158 C 222.809 193.936,223.013 193.616,223.180 193.448 C 223.346 193.280,223.482 192.941,223.482 192.696 C 223.482 192.451,223.638 192.250,223.829 192.250 C 224.060 192.250,224.176 192.019,224.176 191.556 C 224.176 191.093,224.291 190.862,224.523 190.862 C 224.765 190.862,224.870 190.618,224.870 190.052 C 224.870 189.487,224.975 189.242,225.217 189.242 C 225.408 189.242,225.564 189.086,225.564 188.895 C 225.564 188.704,225.712 188.548,225.893 188.548 C 226.073 188.548,226.288 188.245,226.369 187.874 C 226.451 187.502,226.667 187.141,226.850 187.071 C 227.039 186.999,227.183 186.639,227.183 186.242 C 227.183 185.773,227.298 185.541,227.530 185.541 C 227.762 185.541,227.877 185.309,227.877 184.847 C 227.877 184.384,227.993 184.153,228.224 184.153 C 228.417 184.153,228.571 183.947,228.571 183.690 C 228.571 183.433,228.726 183.227,228.918 183.227 C 229.147 183.227,229.265 182.999,229.265 182.560 C 229.265 182.088,229.400 181.858,229.728 181.772 C 230.041 181.690,230.191 181.457,230.191 181.051 C 230.191 180.672,230.319 180.451,230.538 180.451 C 230.729 180.451,230.885 180.254,230.885 180.013 C 230.885 179.772,231.041 179.515,231.232 179.442 C 231.423 179.369,231.579 179.045,231.579 178.723 C 231.579 178.357,231.709 178.138,231.926 178.138 C 232.157 178.138,232.273 177.906,232.273 177.444 C 232.273 177.005,232.391 176.750,232.595 176.750 C 232.949 176.750,233.198 176.263,233.198 175.574 C 233.198 175.330,233.355 175.130,233.545 175.130 C 233.736 175.130,233.892 174.985,233.892 174.808 C 233.892 174.631,234.049 174.426,234.239 174.352 C 234.430 174.279,234.586 173.952,234.586 173.626 C 234.586 173.300,234.743 172.974,234.933 172.900 C 235.131 172.824,235.281 172.479,235.281 172.098 C 235.281 171.657,235.399 171.429,235.628 171.429 C 235.859 171.429,235.975 171.197,235.975 170.735 C 235.975 170.266,236.089 170.040,236.329 170.040 C 236.524 170.040,236.750 169.858,236.832 169.636 C 236.914 169.413,237.119 169.148,237.287 169.046 C 237.456 168.944,237.594 168.606,237.594 168.294 C 237.594 167.944,237.727 167.727,237.941 167.727 C 238.172 167.727,238.288 167.496,238.288 167.033 C 238.288 166.570,238.404 166.339,238.635 166.339 C 238.877 166.339,238.982 166.095,238.982 165.529 C 238.982 164.964,239.087 164.719,239.329 164.719 C 239.520 164.719,239.676 164.563,239.676 164.372 C 239.676 164.182,239.824 164.025,240.005 164.025 C 240.186 164.025,240.404 163.706,240.489 163.316 C 240.575 162.925,240.791 162.550,240.970 162.481 C 241.149 162.413,241.296 162.055,241.296 161.687 C 241.296 161.247,241.414 161.018,241.643 161.018 C 241.833 161.018,241.990 160.859,241.990 160.664 C 241.990 160.469,242.146 160.249,242.337 160.176 C 242.534 160.100,242.684 159.755,242.684 159.374 C 242.684 158.950,242.804 158.704,243.012 158.704 C 243.193 158.704,243.408 158.401,243.489 158.030 C 243.571 157.659,243.787 157.298,243.970 157.227 C 244.153 157.157,244.303 156.847,244.303 156.539 C 244.303 156.230,244.459 155.918,244.650 155.845 C 244.841 155.771,244.997 155.563,244.997 155.382 C 244.997 155.201,245.153 154.992,245.344 154.919 C 245.535 154.846,245.691 154.523,245.691 154.200 C 245.691 153.834,245.821 153.615,246.038 153.615 C 246.263 153.615,246.385 153.390,246.385 152.976 C 246.385 152.589,246.567 152.225,246.848 152.049 C 247.109 151.886,247.311 151.510,247.311 151.184 C 247.311 150.826,247.442 150.607,247.658 150.607 C 247.848 150.607,248.005 150.462,248.005 150.285 C 248.005 150.108,248.161 149.903,248.352 149.830 C 248.555 149.752,248.699 149.405,248.699 148.995 C 248.699 148.526,248.814 148.294,249.046 148.294 C 249.277 148.294,249.393 148.062,249.393 147.600 C 249.393 147.137,249.508 146.906,249.740 146.906 C 249.933 146.906,250.087 146.700,250.087 146.443 C 250.087 146.189,250.193 145.980,250.323 145.980 C 250.453 145.980,250.685 145.694,250.839 145.344 C 250.992 144.994,251.250 144.625,251.412 144.523 C 251.574 144.421,251.706 144.083,251.706 143.771 C 251.706 143.421,251.839 143.204,252.053 143.204 C 252.282 143.204,252.400 142.976,252.400 142.535 C 252.400 142.153,252.549 141.808,252.747 141.732 C 252.938 141.659,253.094 141.451,253.094 141.270 C 253.094 141.088,253.250 140.880,253.441 140.807 C 253.632 140.734,253.788 140.410,253.788 140.088 C 253.788 139.742,253.920 139.503,254.111 139.503 C 254.464 139.503,254.714 139.016,254.714 138.327 C 254.714 138.083,254.870 137.883,255.061 137.883 C 255.292 137.883,255.408 137.652,255.408 137.189 C 255.408 136.726,255.523 136.495,255.755 136.495 C 255.946 136.495,256.102 136.336,256.102 136.141 C 256.102 135.946,256.258 135.727,256.449 135.653 C 256.647 135.577,256.796 135.232,256.796 134.851 C 256.796 134.427,256.916 134.182,257.124 134.182 C 257.305 134.182,257.520 133.878,257.601 133.507 C 257.683 133.136,257.899 132.775,258.082 132.704 C 258.265 132.634,258.415 132.324,258.415 132.016 C 258.415 131.707,258.571 131.395,258.762 131.322 C 258.953 131.249,259.109 131.029,259.109 130.834 C 259.109 130.639,259.265 130.480,259.456 130.480 C 259.688 130.480,259.803 130.249,259.803 129.786 C 259.803 129.323,259.919 129.092,260.150 129.092 C 260.393 129.092,260.497 128.848,260.497 128.282 C 260.497 127.627,260.586 127.473,260.960 127.473 C 261.269 127.473,261.423 127.318,261.423 127.010 C 261.423 126.755,261.517 126.547,261.632 126.547 C 261.746 126.547,261.949 126.235,262.082 125.853 C 262.215 125.471,262.434 125.159,262.567 125.159 C 262.701 125.159,262.811 124.847,262.811 124.465 C 262.811 124.002,262.927 123.771,263.158 123.771 C 263.389 123.771,263.505 123.540,263.505 123.077 C 263.505 122.614,263.621 122.383,263.852 122.383 C 264.045 122.383,264.199 122.177,264.199 121.920 C 264.199 121.660,264.353 121.457,264.552 121.457 C 264.757 121.457,264.961 121.173,265.040 120.778 C 265.115 120.405,265.321 120.044,265.497 119.976 C 265.674 119.908,265.818 119.589,265.818 119.267 C 265.818 118.901,265.948 118.681,266.165 118.681 C 266.408 118.681,266.512 118.437,266.512 117.872 C 266.512 117.306,266.617 117.062,266.859 117.062 C 267.077 117.062,267.206 116.843,267.206 116.476 C 267.206 116.154,267.050 115.831,266.859 115.757 C 266.662 115.682,266.512 115.337,266.512 114.955 C 266.512 114.514,266.394 114.286,266.165 114.286 C 265.933 114.286,265.818 114.054,265.818 113.584 C 265.818 113.174,265.674 112.828,265.471 112.750 C 265.281 112.677,265.124 112.473,265.124 112.296 C 265.124 112.120,264.916 111.846,264.662 111.687 C 264.407 111.528,264.199 111.215,264.199 110.991 C 264.199 110.767,264.043 110.584,263.852 110.584 C 263.610 110.584,263.505 110.340,263.505 109.774 C 263.505 109.209,263.400 108.965,263.158 108.965 C 262.941 108.965,262.811 108.745,262.811 108.379 C 262.811 108.057,262.655 107.734,262.464 107.660 C 262.273 107.587,262.117 107.379,262.117 107.198 C 262.117 107.016,261.961 106.808,261.770 106.735 C 261.579 106.662,261.423 106.343,261.423 106.026 C 261.423 105.646,261.266 105.410,260.960 105.330 C 260.632 105.244,260.497 105.015,260.497 104.542 C 260.497 104.103,260.379 103.875,260.150 103.875 C 259.922 103.875,259.803 103.646,259.803 103.206 C 259.803 102.824,259.654 102.479,259.456 102.403 C 259.265 102.330,259.109 102.111,259.109 101.916 C 259.109 101.721,258.953 101.562,258.762 101.562 C 258.531 101.562,258.415 101.330,258.415 100.868 C 258.415 100.430,258.297 100.174,258.094 100.174 C 257.910 100.174,257.708 99.828,257.621 99.364 C 257.530 98.879,257.334 98.554,257.132 98.554 C 256.927 98.554,256.796 98.327,256.796 97.968 C 256.796 97.646,256.640 97.323,256.449 97.250 C 256.258 97.176,256.102 96.968,256.102 96.787 C 256.102 96.606,255.946 96.398,255.755 96.324 C 255.564 96.251,255.408 95.939,255.408 95.630 C 255.408 95.322,255.263 95.014,255.087 94.946 C 254.910 94.878,254.704 94.517,254.630 94.144 C 254.551 93.749,254.346 93.464,254.141 93.464 C 253.943 93.464,253.788 93.262,253.788 93.002 C 253.788 92.745,253.634 92.539,253.441 92.539 C 253.210 92.539,253.094 92.308,253.094 91.845 C 253.094 91.382,252.979 91.151,252.747 91.151 C 252.516 91.151,252.400 90.920,252.400 90.457 C 252.400 89.994,252.285 89.763,252.053 89.763 C 251.842 89.763,251.706 89.548,251.706 89.213 C 251.706 88.910,251.550 88.533,251.359 88.375 C 251.168 88.216,251.012 87.943,251.012 87.768 C 251.012 87.593,250.804 87.449,250.549 87.449 C 250.189 87.449,250.087 87.295,250.087 86.748 C 250.087 86.338,249.943 85.991,249.740 85.914 C 249.542 85.838,249.393 85.493,249.393 85.111 C 249.393 84.670,249.274 84.442,249.046 84.442 C 248.829 84.442,248.699 84.223,248.699 83.856 C 248.699 83.534,248.543 83.211,248.352 83.137 C 248.161 83.064,248.005 82.856,248.005 82.675 C 248.005 82.494,247.848 82.285,247.658 82.212 C 247.467 82.139,247.311 81.820,247.311 81.504 C 247.311 81.123,247.154 80.887,246.848 80.807 C 246.520 80.722,246.385 80.492,246.385 80.019 C 246.385 79.581,246.266 79.352,246.038 79.352 C 245.827 79.352,245.691 79.137,245.691 78.802 C 245.691 78.500,245.535 78.123,245.344 77.964 C 245.153 77.806,244.997 77.533,244.997 77.357 C 244.997 77.182,244.841 77.039,244.650 77.039 C 244.422 77.039,244.303 76.810,244.303 76.369 C 244.303 76.001,244.157 75.644,243.978 75.575 C 243.799 75.507,243.583 75.131,243.497 74.741 C 243.411 74.351,243.193 74.031,243.012 74.031 C 242.832 74.031,242.684 73.875,242.684 73.684 C 242.684 73.493,242.527 73.337,242.337 73.337 C 242.094 73.337,241.990 73.093,241.990 72.527 C 241.990 71.962,241.885 71.718,241.643 71.718 C 241.425 71.718,241.296 71.498,241.296 71.132 C 241.296 70.810,241.146 70.489,240.963 70.419 C 240.780 70.348,240.563 69.987,240.482 69.616 C 240.400 69.245,240.186 68.942,240.005 68.942 C 239.824 68.942,239.676 68.733,239.676 68.479 C 239.676 68.222,239.522 68.016,239.329 68.016 C 239.098 68.016,238.982 67.785,238.982 67.322 C 238.982 66.859,238.866 66.628,238.635 66.628 C 238.407 66.628,238.288 66.400,238.288 65.959 C 238.288 65.577,238.139 65.232,237.941 65.156 C 237.750 65.083,237.594 64.828,237.594 64.589 C 237.594 64.081,236.665 62.927,236.256 62.927 C 236.089 62.927,235.975 62.599,235.975 62.117 C 235.975 61.551,235.870 61.307,235.628 61.307 C 235.396 61.307,235.281 61.076,235.281 60.613 C 235.281 60.150,235.165 59.919,234.933 59.919 C 234.743 59.919,234.586 59.718,234.586 59.473 C 234.586 59.227,234.451 58.889,234.284 58.721 C 234.118 58.553,233.913 58.233,233.829 58.010 C 233.745 57.788,233.581 57.606,233.466 57.606 C 233.351 57.606,233.194 57.293,233.117 56.912 C 233.036 56.504,232.833 56.217,232.626 56.217 C 232.391 56.217,232.273 55.994,232.273 55.548 C 232.273 55.167,232.124 54.822,231.926 54.746 C 231.735 54.672,231.579 54.453,231.579 54.258 C 231.579 54.063,231.423 53.904,231.232 53.904 C 231.001 53.904,230.885 53.673,230.885 53.210 C 230.885 52.747,230.769 52.516,230.538 52.516 C 230.347 52.516,230.191 52.316,230.191 52.072 C 230.191 51.383,229.941 50.896,229.588 50.896 C 229.384 50.896,229.265 50.641,229.265 50.202 C 229.265 49.740,229.150 49.508,228.918 49.508 C 228.728 49.508,228.571 49.352,228.571 49.161 C 228.571 48.971,228.415 48.814,228.224 48.814 C 227.982 48.814,227.877 48.570,227.877 48.005 C 227.877 47.439,227.773 47.195,227.530 47.195 C 227.313 47.195,227.183 46.976,227.183 46.609 C 227.183 46.287,227.034 45.966,226.850 45.896 C 226.667 45.826,226.451 45.465,226.369 45.093 C 226.288 44.722,226.073 44.419,225.893 44.419 C 225.712 44.419,225.564 44.211,225.564 43.956 C 225.564 43.699,225.410 43.493,225.217 43.493 C 224.986 43.493,224.870 43.262,224.870 42.799 C 224.870 42.337,224.754 42.105,224.523 42.105 C 224.293 42.105,224.176 41.875,224.176 41.423 C 224.176 41.047,224.046 40.657,223.887 40.555 C 223.728 40.453,223.390 39.963,223.137 39.466 C 222.883 38.969,222.493 38.515,222.269 38.456 C 221.982 38.381,221.862 38.119,221.862 37.567 C 221.862 37.025,221.755 36.784,221.515 36.784 C 221.284 36.784,221.168 36.553,221.168 36.090 C 221.168 35.628,221.053 35.396,220.821 35.396 C 220.630 35.396,220.474 35.240,220.474 35.049 C 220.474 34.858,220.318 34.702,220.127 34.702 C 219.894 34.702,219.780 34.468,219.780 33.986 C 219.780 33.465,219.654 33.238,219.318 33.150 C 218.990 33.064,218.855 32.834,218.855 32.362 C 218.855 31.923,218.736 31.695,218.508 31.695 C 218.276 31.695,218.161 31.462,218.161 30.993 C 218.161 30.583,218.017 30.237,217.814 30.159 C 217.623 30.086,217.467 29.881,217.467 29.703 C 217.467 29.526,217.311 29.381,217.120 29.381 C 216.888 29.381,216.773 29.150,216.773 28.687 C 216.773 28.224,216.657 27.993,216.426 27.993 C 216.235 27.993,216.079 27.793,216.079 27.549 C 216.079 26.860,215.829 26.374,215.476 26.374 C 215.272 26.374,215.153 26.119,215.153 25.680 C 215.153 25.217,215.038 24.986,214.806 24.986 C 214.615 24.986,214.459 24.829,214.459 24.639 C 214.459 24.448,214.303 24.291,214.112 24.291 C 213.870 24.291,213.765 24.047,213.765 23.482 C 213.765 22.916,213.661 22.672,213.418 22.672 C 213.201 22.672,213.071 22.453,213.071 22.086 C 213.071 21.764,212.921 21.443,212.738 21.373 C 212.555 21.303,212.339 20.942,212.257 20.571 C 212.176 20.200,211.961 19.896,211.780 19.896 C 211.600 19.896,211.452 19.688,211.452 19.433 C 211.452 19.176,211.297 18.971,211.105 18.971 C 210.873 18.971,210.758 18.739,210.758 18.276 C 210.758 17.814,210.642 17.582,210.411 17.582 C 210.178 17.582,210.064 17.350,210.064 16.881 C 210.064 16.471,209.919 16.124,209.717 16.047 C 209.526 15.973,209.370 15.768,209.370 15.591 C 209.370 15.414,209.161 15.269,208.907 15.269 C 208.547 15.269,208.444 15.115,208.444 14.575 C 208.444 14.112,208.329 13.881,208.097 13.881 C 207.855 13.881,207.750 13.637,207.750 13.071 C 207.750 12.506,207.645 12.261,207.403 12.261 C 207.172 12.261,207.056 12.030,207.056 11.567 C 207.056 11.105,206.940 10.873,206.709 10.873 C 206.518 10.873,206.362 10.714,206.362 10.519 C 206.362 10.324,206.206 10.105,206.015 10.032 C 205.824 9.958,205.668 9.640,205.668 9.323 C 205.668 8.942,205.512 8.707,205.205 8.627 C 204.878 8.541,204.743 8.311,204.743 7.839 C 204.743 7.400,204.624 7.172,204.396 7.172 C 204.163 7.172,204.049 6.940,204.049 6.470 C 204.049 6.061,203.904 5.714,203.702 5.636 C 203.511 5.563,203.355 5.358,203.355 5.181 C 203.355 5.003,203.198 4.858,203.008 4.858 C 202.776 4.858,202.660 4.627,202.660 4.164 C 202.660 3.702,202.545 3.470,202.313 3.470 C 202.123 3.470,201.966 3.271,201.966 3.026 C 201.966 2.346,201.719 1.851,201.379 1.851 C 201.210 1.851,201.039 1.564,200.999 1.215 L 200.925 0.578 133.448 0.520 L 65.971 0.462 65.818 1.156 " stroke="none" fill="#DFE0E0" fill-rule="evenodd"></path><path id="path1" d="" stroke="none" fill="#080404" fill-rule="evenodd"></path><path id="path2" d="" stroke="none" fill="#080404" fill-rule="evenodd"></path><path id="path3" d="" stroke="none" fill="#080404" fill-rule="evenodd"></path><path id="path4" d="" stroke="none" fill="#080404" fill-rule="evenodd"></path></g></svg>