<svg id="svg" version="1.1" xmlns="http://www.w3.org/2000/svg" xmlns:xlink="http://www.w3.org/1999/xlink" width="400" height="225" viewBox="0, 0, 400,225"><g id="svgg"><path id="path0" d="M196.284 34.947 C 196.281 35.369,195.250 35.791,194.951 35.492 C 194.780 35.320,194.710 35.393,194.710 35.746 C 194.710 36.101,194.568 36.248,194.204 36.267 C 193.123 36.322,193.022 36.367,193.021 36.790 C 193.021 37.135,192.857 37.229,192.233 37.240 C 191.627 37.251,191.453 37.345,191.478 37.648 C 191.497 37.887,191.351 38.042,191.108 38.042 C 190.887 38.042,190.648 38.194,190.577 38.379 C 190.506 38.565,190.250 38.717,190.009 38.717 C 189.331 38.717,188.858 38.958,188.858 39.304 C 188.858 39.476,188.680 39.628,188.464 39.641 C 188.247 39.654,187.867 39.680,187.620 39.698 C 187.339 39.718,187.181 39.879,187.201 40.124 C 187.223 40.412,187.064 40.518,186.609 40.518 C 185.951 40.518,185.427 40.960,185.494 41.458 C 185.579 42.085,185.470 42.300,185.131 42.170 C 184.938 42.096,184.833 41.896,184.898 41.727 C 184.964 41.557,184.919 41.418,184.799 41.418 C 184.679 41.418,184.581 41.570,184.581 41.756 C 184.581 41.992,184.343 42.093,183.793 42.093 C 183.155 42.093,183.005 42.179,183.005 42.544 C 183.005 42.957,182.256 43.171,181.356 43.015 C 181.254 42.997,181.228 43.075,181.298 43.188 C 181.453 43.440,180.883 43.949,180.677 43.742 C 180.596 43.661,180.529 43.801,180.529 44.053 C 180.529 44.415,180.337 44.543,179.618 44.658 C 179.108 44.739,178.767 44.901,178.844 45.024 C 178.989 45.259,177.996 45.727,177.544 45.636 C 177.396 45.607,177.244 45.790,177.205 46.043 C 177.146 46.421,177.001 46.487,176.385 46.415 C 175.722 46.338,175.618 46.400,175.479 46.956 C 175.384 47.332,175.257 47.482,175.162 47.328 C 174.962 47.005,174.094 47.129,174.170 47.469 C 174.201 47.608,174.119 47.721,173.988 47.721 C 173.857 47.721,173.808 47.815,173.879 47.930 C 173.950 48.046,173.890 48.213,173.745 48.303 C 173.580 48.405,173.542 48.368,173.642 48.206 C 173.730 48.063,173.716 47.946,173.609 47.946 C 173.279 47.946,172.905 48.437,173.016 48.725 C 173.074 48.876,172.939 49.142,172.717 49.317 C 172.349 49.606,172.340 49.600,172.622 49.240 C 172.902 48.883,172.865 48.846,172.236 48.846 C 171.758 48.846,171.461 48.996,171.285 49.324 C 171.106 49.659,171.103 49.756,171.277 49.648 C 171.582 49.460,171.593 49.743,171.300 50.197 C 171.141 50.442,171.081 50.454,171.078 50.240 C 171.076 50.078,170.972 50.009,170.846 50.087 C 170.720 50.164,170.686 50.348,170.770 50.494 C 170.857 50.647,170.835 50.680,170.717 50.572 C 170.604 50.469,170.499 50.292,170.484 50.178 C 170.468 50.065,170.443 49.871,170.428 49.747 C 170.412 49.623,170.197 49.724,169.949 49.972 C 169.702 50.219,169.347 50.422,169.162 50.422 C 168.974 50.422,168.824 50.622,168.824 50.872 C 168.824 51.236,168.674 51.322,168.044 51.322 C 167.096 51.322,166.592 51.985,167.130 52.523 C 167.422 52.815,167.422 52.870,167.130 52.982 C 166.912 53.065,166.798 52.968,166.798 52.697 C 166.798 52.403,166.652 52.300,166.292 52.337 C 165.453 52.425,165.416 52.440,165.543 52.646 C 165.610 52.754,165.363 52.904,164.994 52.978 C 164.600 53.056,164.322 53.254,164.322 53.455 C 164.322 53.750,163.767 53.924,163.140 53.825 C 163.047 53.811,162.971 54.001,162.971 54.249 C 162.971 54.623,162.821 54.699,162.084 54.699 C 161.308 54.699,161.208 54.757,161.286 55.164 C 161.356 55.528,161.268 55.620,160.879 55.589 C 159.939 55.514,159.595 55.600,159.595 55.911 C 159.595 56.082,159.392 56.275,159.145 56.340 C 158.897 56.405,158.694 56.619,158.694 56.816 C 158.694 57.058,158.491 57.175,158.069 57.175 C 157.511 57.175,156.560 57.892,156.800 58.131 C 156.851 58.183,156.746 58.225,156.566 58.225 C 156.386 58.225,156.289 58.142,156.352 58.041 C 156.415 57.939,156.233 57.947,155.948 58.057 C 155.664 58.167,155.456 58.368,155.487 58.504 C 155.518 58.640,155.391 58.751,155.205 58.751 C 155.020 58.751,154.868 58.852,154.868 58.976 C 154.868 59.100,154.760 59.201,154.629 59.201 C 154.498 59.201,154.460 59.090,154.544 58.953 C 154.652 58.779,154.555 58.782,154.220 58.961 C 153.957 59.102,153.742 59.314,153.742 59.434 C 153.742 59.553,153.590 59.651,153.405 59.651 C 153.100 59.651,152.967 59.918,153.040 60.383 C 153.055 60.476,152.662 60.551,152.167 60.551 C 151.534 60.551,151.266 60.648,151.266 60.875 C 151.266 61.075,150.988 61.225,150.535 61.269 C 150.000 61.320,149.811 61.445,149.834 61.733 C 149.858 62.037,149.691 62.127,149.103 62.127 C 148.683 62.127,148.340 62.234,148.340 62.366 C 148.340 62.497,148.240 62.542,148.117 62.466 C 147.990 62.388,147.952 62.478,148.029 62.678 C 148.163 63.026,147.842 63.132,146.931 63.039 C 146.708 63.016,146.458 63.209,146.357 63.480 C 146.259 63.745,146.108 63.954,146.021 63.945 C 145.540 63.894,145.414 63.961,145.414 64.266 C 145.414 64.489,145.190 64.603,144.753 64.603 C 144.105 64.603,143.889 64.882,143.737 65.917 C 143.701 66.167,143.418 66.286,142.805 66.312 C 141.423 66.370,141.327 66.391,141.465 66.614 C 141.656 66.924,141.209 67.124,140.326 67.124 C 139.661 67.124,139.565 67.188,139.681 67.552 C 139.792 67.903,139.702 67.980,139.182 67.983 C 138.439 67.987,138.119 68.171,137.921 68.708 C 137.841 68.925,137.637 69.044,137.461 68.976 C 137.272 68.904,137.098 69.031,137.030 69.292 C 136.942 69.628,136.777 69.702,136.311 69.613 C 135.832 69.522,135.681 69.597,135.582 69.977 C 135.461 70.440,135.294 70.506,134.215 70.514 C 133.936 70.516,133.708 70.652,133.708 70.817 C 133.708 71.001,133.861 71.068,134.102 70.990 C 134.435 70.883,134.444 70.901,134.159 71.106 C 133.973 71.240,133.529 71.351,133.172 71.353 C 132.730 71.355,132.296 71.598,131.807 72.116 C 131.414 72.533,130.870 72.945,130.599 73.031 C 130.328 73.117,130.097 73.358,130.084 73.566 C 130.071 73.799,129.993 73.729,129.882 73.382 L 129.702 72.819 129.679 73.442 C 129.659 74.005,129.594 74.053,128.985 73.945 C 128.474 73.855,128.245 73.936,128.030 74.280 C 127.861 74.552,127.505 74.733,127.140 74.733 C 126.376 74.733,126.145 75.080,126.604 75.538 C 126.797 75.732,126.956 76.060,126.957 76.268 C 126.957 76.476,127.413 77.127,127.970 77.714 C 128.526 78.302,128.981 78.980,128.981 79.221 C 128.981 79.461,129.083 79.721,129.207 79.797 C 129.330 79.874,129.432 80.177,129.432 80.470 C 129.432 80.763,129.560 81.137,129.718 81.301 C 130.199 81.801,131.387 83.778,132.032 85.152 C 132.368 85.868,132.819 86.548,133.034 86.663 C 133.248 86.778,133.486 87.181,133.561 87.560 C 133.637 87.938,133.807 88.372,133.940 88.524 C 134.803 89.519,135.987 91.309,136.112 91.809 C 136.313 92.613,137.257 94.502,137.870 95.329 C 138.145 95.701,138.448 96.258,138.542 96.567 C 138.637 96.877,138.840 97.282,138.993 97.468 C 139.147 97.653,139.706 98.565,140.236 99.494 C 140.765 100.422,141.374 101.384,141.589 101.632 C 141.805 101.880,142.508 103.069,143.153 104.275 C 143.797 105.481,144.419 106.526,144.535 106.597 C 144.650 106.669,144.960 107.151,145.222 107.669 C 145.485 108.186,145.940 108.896,146.232 109.246 C 146.525 109.596,146.828 110.278,146.905 110.762 C 146.982 111.245,147.185 111.756,147.355 111.897 C 147.525 112.039,147.665 112.348,147.665 112.584 C 147.665 112.820,147.812 113.070,147.991 113.139 C 148.171 113.208,148.431 113.607,148.569 114.025 C 148.807 114.747,150.673 116.826,151.083 116.826 C 151.189 116.826,151.391 116.573,151.532 116.263 C 151.673 115.954,151.864 115.701,151.956 115.701 C 152.047 115.701,152.234 115.422,152.370 115.082 C 152.507 114.741,152.817 114.159,153.060 113.787 C 153.304 113.416,153.652 112.784,153.835 112.383 C 154.018 111.982,154.477 111.204,154.855 110.654 C 155.234 110.104,155.543 109.582,155.543 109.493 C 155.543 109.404,155.891 108.807,156.317 108.166 C 156.742 107.525,157.160 106.722,157.246 106.380 C 157.332 106.039,157.541 105.707,157.710 105.641 C 157.880 105.576,158.019 105.330,158.019 105.095 C 158.019 104.859,158.222 104.493,158.469 104.281 C 158.717 104.069,158.920 103.766,158.920 103.608 C 158.920 103.115,160.793 99.944,161.084 99.944 C 161.236 99.944,161.426 99.641,161.508 99.271 C 161.589 98.901,161.741 98.545,161.846 98.481 C 161.950 98.416,162.356 97.706,162.747 96.902 C 163.139 96.099,163.541 95.442,163.641 95.442 C 163.741 95.442,163.888 95.183,163.967 94.866 C 164.047 94.549,164.438 93.810,164.836 93.223 C 165.826 91.763,165.997 91.477,166.810 89.927 C 167.824 87.993,169.108 85.897,169.499 85.537 C 169.566 85.476,169.745 85.172,169.896 84.862 C 170.047 84.553,170.257 84.147,170.362 83.962 C 170.467 83.776,170.838 83.067,171.187 82.386 C 171.537 81.705,172.110 80.779,172.462 80.328 C 172.813 79.877,173.101 79.349,173.101 79.155 C 173.101 78.961,173.291 78.621,173.523 78.399 C 173.755 78.178,174.022 77.748,174.115 77.444 C 174.209 77.141,174.424 76.754,174.594 76.584 C 174.763 76.415,174.902 76.078,174.902 75.835 C 174.902 75.592,175.053 75.336,175.239 75.264 C 175.425 75.193,175.577 75.017,175.577 74.873 C 175.577 74.728,175.979 74.005,176.471 73.265 C 176.963 72.525,177.368 71.748,177.371 71.538 C 177.375 71.329,177.466 71.103,177.574 71.036 C 177.682 70.969,178.054 70.330,178.400 69.616 C 178.746 68.902,179.164 68.236,179.329 68.137 C 179.494 68.038,179.629 67.825,179.629 67.663 C 179.629 67.502,179.975 66.916,180.397 66.362 C 180.820 65.809,181.330 65.009,181.531 64.586 C 182.121 63.340,182.612 62.473,182.797 62.350 C 182.892 62.287,183.038 61.962,183.122 61.628 C 183.206 61.294,183.416 60.902,183.590 60.758 C 183.763 60.614,183.905 60.370,183.905 60.217 C 183.905 60.063,184.108 59.679,184.356 59.365 C 184.603 59.050,184.806 58.673,184.806 58.528 C 184.806 58.383,185.152 57.841,185.576 57.324 C 185.999 56.808,186.414 56.111,186.498 55.776 C 186.582 55.442,186.793 55.050,186.966 54.906 C 187.140 54.762,187.282 54.517,187.282 54.361 C 187.282 54.206,187.431 53.955,187.614 53.803 C 187.797 53.651,188.259 52.905,188.640 52.143 C 189.708 50.014,190.035 49.438,190.359 49.113 C 190.524 48.949,190.658 48.665,190.658 48.484 C 190.658 48.110,191.524 46.802,191.953 46.528 C 192.107 46.429,192.234 46.158,192.234 45.925 C 192.234 45.692,192.386 45.351,192.571 45.165 C 192.756 44.980,193.015 44.593,193.145 44.305 C 193.276 44.017,193.628 43.376,193.929 42.881 C 194.229 42.386,194.583 41.732,194.717 41.428 C 194.850 41.125,195.308 40.390,195.735 39.796 C 196.162 39.202,196.511 38.577,196.511 38.406 C 196.511 38.236,196.672 37.964,196.868 37.801 C 197.093 37.613,197.190 37.268,197.130 36.863 C 197.079 36.510,197.136 36.159,197.259 36.084 C 197.383 36.007,197.410 36.061,197.320 36.206 C 197.232 36.349,197.263 36.466,197.390 36.466 C 197.695 36.466,198.087 35.714,198.087 35.130 C 198.087 34.738,197.946 34.665,197.186 34.665 C 196.617 34.665,196.285 34.769,196.284 34.947 M186.382 41.080 C 186.382 41.266,186.233 41.418,186.051 41.418 C 185.850 41.418,185.771 41.286,185.850 41.080 C 185.921 40.895,186.070 40.743,186.181 40.743 C 186.291 40.743,186.382 40.895,186.382 41.080 M170.383 50.740 C 170.725 51.152,170.255 51.494,169.873 51.109 C 169.674 50.908,169.718 50.880,170.062 50.990 C 170.506 51.132,170.506 51.129,170.075 50.778 C 169.835 50.582,169.746 50.422,169.879 50.422 C 170.011 50.422,170.238 50.565,170.383 50.740 M137.985 69.499 C 137.985 69.675,137.865 69.778,137.718 69.729 C 137.310 69.593,137.252 69.180,137.641 69.180 C 137.831 69.180,137.985 69.324,137.985 69.499 M144.889 100.521 C 145.066 101.080,144.538 101.415,144.127 101.005 C 143.777 100.654,143.768 100.576,144.063 100.389 C 144.443 100.150,144.790 100.205,144.889 100.521 M246.130 121.668 C 245.949 122.100,245.711 122.454,245.601 122.454 C 245.491 122.454,245.288 122.732,245.149 123.073 C 244.624 124.357,243.320 126.606,242.995 126.788 C 242.809 126.893,242.656 127.163,242.656 127.389 C 242.656 127.616,242.504 127.927,242.319 128.081 C 242.133 128.235,241.981 128.546,241.981 128.773 C 241.981 128.999,241.839 129.265,241.666 129.364 C 241.357 129.541,239.955 132.111,239.955 132.501 C 239.955 132.610,239.688 132.988,239.363 133.339 C 239.037 133.690,238.517 134.449,238.207 135.025 C 237.896 135.601,237.378 136.563,237.054 137.163 C 236.731 137.763,236.324 138.523,236.150 138.851 C 235.976 139.180,235.762 139.499,235.675 139.561 C 235.587 139.623,235.347 139.977,235.140 140.349 C 234.933 140.720,234.566 141.328,234.324 141.699 C 234.082 142.071,233.781 142.628,233.656 142.938 C 233.530 143.247,233.326 143.652,233.202 143.838 C 233.077 144.024,232.872 144.417,232.745 144.713 C 232.618 145.008,231.975 146.072,231.316 147.076 C 230.656 148.081,229.891 149.383,229.614 149.971 C 229.338 150.558,229.019 151.096,228.906 151.166 C 228.793 151.236,228.700 151.449,228.700 151.641 C 228.700 151.942,228.457 152.308,227.355 153.667 C 227.238 153.811,227.078 154.187,226.999 154.502 C 226.920 154.817,226.713 155.192,226.540 155.336 C 226.366 155.480,226.224 155.719,226.224 155.866 C 226.224 156.013,226.047 156.330,225.830 156.570 C 225.613 156.810,225.145 157.589,224.790 158.301 C 224.435 159.012,224.076 159.595,223.991 159.595 C 223.907 159.595,223.710 159.949,223.553 160.383 C 223.397 160.816,223.174 161.171,223.058 161.171 C 222.942 161.171,222.847 161.359,222.847 161.590 C 222.847 161.821,222.666 162.252,222.445 162.547 C 222.223 162.842,221.918 163.337,221.767 163.647 C 221.616 163.956,221.292 164.513,221.048 164.885 C 220.803 165.256,220.496 165.813,220.365 166.123 C 220.233 166.432,220.004 166.787,219.855 166.911 C 219.706 167.035,219.330 167.641,219.021 168.257 C 218.711 168.874,218.129 169.860,217.727 170.449 C 217.324 171.038,216.995 171.660,216.995 171.830 C 216.995 172.000,216.792 172.397,216.545 172.712 C 216.297 173.027,216.095 173.392,216.095 173.523 C 216.095 173.655,215.871 174.192,215.597 174.717 C 215.142 175.590,214.938 175.864,213.946 176.946 C 213.766 177.142,213.618 177.416,213.618 177.553 C 213.618 177.844,212.623 179.764,212.221 180.248 C 211.899 180.636,211.623 181.112,210.753 182.780 C 209.734 184.735,208.496 186.806,208.195 187.057 C 208.054 187.175,207.868 187.515,206.531 190.096 C 205.140 192.781,204.973 193.057,204.221 193.932 C 203.818 194.400,203.489 194.957,203.489 195.169 C 203.489 195.382,203.337 195.682,203.151 195.836 C 202.966 195.990,202.814 196.336,202.814 196.605 C 202.814 197.079,202.447 197.687,201.636 198.559 C 201.422 198.790,201.131 199.438,200.990 199.999 C 200.848 200.561,200.644 201.075,200.535 201.143 C 200.426 201.210,200.338 201.461,200.338 201.702 C 200.338 202.347,201.904 202.335,202.073 201.688 C 202.162 201.350,202.380 201.238,202.953 201.238 C 203.479 201.238,203.714 201.134,203.714 200.900 C 203.714 200.713,203.914 200.563,204.164 200.563 C 204.412 200.563,204.616 200.436,204.618 200.281 C 204.620 200.093,204.695 200.112,204.843 200.338 C 205.028 200.619,205.088 200.591,205.204 200.169 C 205.333 199.695,205.565 199.554,206.059 199.648 C 206.173 199.670,206.123 199.511,205.947 199.294 C 205.743 199.043,205.729 198.962,205.909 199.070 C 206.064 199.163,206.190 199.131,206.190 199.000 C 206.190 198.869,206.595 198.762,207.091 198.762 C 207.659 198.762,207.970 198.665,207.935 198.499 C 207.904 198.354,208.258 198.142,208.723 198.026 C 209.196 197.909,209.567 197.679,209.567 197.502 C 209.567 197.328,209.728 197.186,209.925 197.186 C 210.123 197.186,210.337 196.984,210.402 196.736 C 210.492 196.391,210.711 196.285,211.337 196.282 C 211.871 196.280,212.051 196.213,211.855 196.089 C 211.508 195.869,211.984 195.611,212.736 195.611 C 212.974 195.611,213.168 195.503,213.168 195.372 C 213.168 195.241,213.270 195.196,213.393 195.273 C 213.600 195.400,213.719 195.093,213.640 194.637 C 213.622 194.535,213.704 194.511,213.822 194.585 C 213.941 194.658,214.104 194.610,214.186 194.478 C 214.284 194.318,214.424 194.313,214.603 194.461 C 214.771 194.601,214.996 194.606,215.202 194.476 C 215.472 194.305,215.453 194.266,215.100 194.263 C 214.863 194.262,214.745 194.184,214.838 194.091 C 215.034 193.895,215.141 193.876,216.233 193.838 C 216.931 193.814,217.031 193.745,216.930 193.360 C 216.842 193.024,216.923 192.909,217.248 192.909 C 217.488 192.909,217.739 192.767,217.805 192.594 C 217.872 192.420,218.274 192.213,218.699 192.133 C 219.124 192.054,219.471 191.892,219.471 191.774 C 219.471 191.438,220.334 190.659,220.420 190.917 C 220.462 191.043,220.790 190.860,221.148 190.509 C 221.507 190.158,221.714 190.023,221.610 190.208 C 221.473 190.451,221.547 190.435,221.870 190.152 C 222.118 189.935,222.546 189.758,222.822 189.758 C 223.100 189.758,223.262 189.657,223.185 189.533 C 223.109 189.409,223.204 189.308,223.397 189.308 C 223.590 189.308,223.748 189.207,223.748 189.083 C 223.748 188.959,223.945 188.858,224.185 188.858 C 224.425 188.858,224.691 188.746,224.776 188.608 C 224.883 188.435,224.988 188.452,225.123 188.665 C 225.265 188.888,225.318 188.834,225.320 188.464 C 225.323 188.108,225.458 187.957,225.774 187.957 C 226.074 187.957,226.224 187.807,226.224 187.507 C 226.224 187.145,226.374 187.057,226.988 187.057 C 227.459 187.057,227.801 186.928,227.881 186.719 C 227.958 186.519,228.296 186.382,228.714 186.382 C 229.228 186.382,229.449 186.260,229.535 185.931 C 229.620 185.608,229.842 185.481,230.323 185.481 C 230.804 185.481,231.026 185.354,231.111 185.031 C 231.213 184.640,231.661 184.483,232.527 184.534 C 232.589 184.538,232.893 184.198,233.202 183.779 C 233.648 183.176,233.925 183.016,234.534 183.011 C 234.957 183.008,235.236 182.938,235.155 182.857 C 234.857 182.559,235.529 182.105,236.268 182.105 C 236.864 182.105,237.029 182.012,237.029 181.679 C 237.029 181.415,237.175 181.266,237.417 181.286 C 237.631 181.303,237.808 181.165,237.811 180.979 C 237.815 180.753,238.095 180.619,238.661 180.572 C 239.213 180.526,239.505 180.390,239.505 180.178 C 239.505 180.000,239.606 179.854,239.730 179.854 C 239.854 179.854,239.955 179.955,239.955 180.079 C 239.955 180.203,240.042 180.304,240.149 180.304 C 240.255 180.304,240.298 180.025,240.244 179.685 C 240.170 179.224,240.202 179.148,240.370 179.389 C 240.641 179.776,241.399 179.296,241.227 178.847 C 241.160 178.674,241.355 178.621,241.810 178.688 C 242.284 178.758,242.555 178.676,242.698 178.421 C 242.811 178.218,243.101 178.053,243.343 178.053 C 243.827 178.053,243.947 177.482,243.500 177.302 C 243.231 177.193,244.493 177.060,245.076 177.136 C 245.231 177.156,245.357 176.965,245.357 176.712 C 245.357 176.334,245.502 176.252,246.166 176.252 C 246.754 176.252,247.004 176.142,247.080 175.850 C 247.143 175.610,247.426 175.428,247.781 175.398 C 248.108 175.371,248.482 175.234,248.611 175.092 C 248.779 174.909,248.766 174.881,248.565 174.994 C 248.410 175.082,248.284 175.091,248.284 175.016 C 248.284 174.940,248.594 174.770,248.973 174.638 C 249.414 174.484,249.619 174.286,249.543 174.087 C 249.431 173.796,250.063 173.647,250.929 173.759 C 251.083 173.779,251.210 173.639,251.210 173.448 C 251.210 173.239,251.411 173.099,251.716 173.097 C 251.995 173.095,252.375 172.985,252.560 172.851 C 252.838 172.651,252.823 172.633,252.472 172.747 C 252.116 172.863,252.092 172.832,252.325 172.550 C 252.478 172.366,252.670 172.223,252.751 172.234 C 253.348 172.313,253.686 172.143,253.686 171.764 C 253.686 171.422,253.869 171.312,254.530 171.257 C 255.172 171.204,255.367 171.093,255.343 170.793 C 255.315 170.440,256.051 170.240,256.894 170.373 C 256.986 170.388,257.062 170.248,257.062 170.062 C 257.062 169.771,257.461 169.616,258.005 169.693 C 258.091 169.705,258.224 169.515,258.302 169.269 C 258.392 168.986,258.643 168.824,258.991 168.824 C 259.388 168.824,259.539 168.700,259.539 168.374 C 259.539 168.015,259.689 167.923,260.274 167.923 C 260.834 167.923,261.102 167.775,261.394 167.304 C 261.605 166.964,261.780 166.824,261.784 166.994 C 261.789 167.256,261.848 167.256,262.170 166.994 C 262.499 166.728,262.524 166.732,262.352 167.023 C 262.181 167.314,262.206 167.318,262.534 167.052 C 262.950 166.714,263.069 166.001,262.667 166.249 C 262.493 166.357,262.496 166.260,262.675 165.925 C 262.816 165.662,263.079 165.447,263.261 165.447 C 263.660 165.447,263.685 165.712,263.320 166.078 C 263.110 166.288,263.115 166.348,263.341 166.348 C 263.501 166.348,263.685 166.145,263.750 165.898 C 263.835 165.575,264.057 165.447,264.538 165.447 C 265.019 165.447,265.241 165.320,265.326 164.997 C 265.440 164.562,265.741 164.451,266.573 164.535 C 266.921 164.571,267.070 164.321,266.996 163.824 C 266.983 163.735,267.123 163.721,267.308 163.792 C 268.139 164.111,268.781 163.675,268.691 162.853 C 268.596 161.992,269.019 161.768,269.425 162.465 C 269.643 162.840,269.655 162.840,269.661 162.465 C 269.666 162.169,269.857 162.071,270.430 162.071 C 271.014 162.071,271.220 161.961,271.315 161.598 C 271.383 161.338,271.546 161.192,271.679 161.274 C 271.811 161.355,271.919 161.323,271.919 161.202 C 271.919 161.081,271.975 160.835,272.045 160.655 C 272.140 160.406,272.032 160.354,271.594 160.438 C 271.278 160.498,271.019 160.625,271.019 160.720 C 271.019 160.815,270.762 160.942,270.448 161.002 C 270.134 161.062,269.931 161.058,269.996 160.993 C 270.061 160.928,270.012 160.751,269.887 160.601 C 269.763 160.450,269.098 159.226,268.411 157.879 C 267.724 156.533,267.016 155.350,266.839 155.251 C 266.662 155.152,266.517 154.893,266.517 154.675 C 266.517 154.458,266.258 153.931,265.941 153.505 C 265.625 153.078,264.941 151.989,264.422 151.085 C 263.903 150.181,263.102 148.813,262.643 148.046 C 262.185 147.279,261.679 146.398,261.520 146.089 C 261.361 145.779,261.002 145.274,260.722 144.965 C 260.442 144.657,260.098 144.049,259.957 143.615 C 259.817 143.180,259.280 142.369,258.764 141.812 C 258.159 141.158,257.716 140.401,257.515 139.674 C 257.344 139.055,256.872 138.092,256.466 137.535 C 255.742 136.542,255.419 135.962,254.711 134.384 C 254.517 133.950,254.102 133.247,253.790 132.821 C 253.478 132.396,253.158 131.788,253.080 131.471 C 252.951 130.951,252.211 129.717,251.858 129.432 C 251.782 129.370,251.461 128.806,251.144 128.179 C 250.828 127.553,250.410 126.907,250.215 126.745 C 250.019 126.583,249.859 126.343,249.859 126.211 C 249.859 125.698,248.837 123.898,248.279 123.428 C 247.955 123.155,247.556 122.526,247.392 122.029 C 246.989 120.808,246.542 120.680,246.130 121.668 M262.466 153.156 C 262.133 153.488,261.695 152.962,261.888 152.463 C 262.039 152.073,262.062 152.075,262.369 152.492 C 262.585 152.785,262.617 153.005,262.466 153.156 " stroke="none" fill="#bdd3c4" fill-rule="evenodd"></path><path id="path1" d="M198.487 35.734 C 198.412 36.481,198.070 37.312,197.350 38.492 C 196.434 39.993,195.870 40.970,193.386 45.357 C 193.036 45.976,192.489 46.866,192.171 47.333 C 191.853 47.801,191.376 48.611,191.111 49.134 C 190.846 49.657,190.438 50.388,190.205 50.760 C 189.972 51.131,189.417 52.129,188.971 52.976 C 188.525 53.824,187.890 54.939,187.561 55.453 C 186.708 56.782,186.221 57.645,185.922 58.357 C 185.779 58.697,185.583 58.976,185.485 58.976 C 185.388 58.976,185.245 59.153,185.167 59.370 C 185.090 59.586,184.570 60.523,184.014 61.452 C 183.457 62.380,182.851 63.462,182.669 63.856 C 182.486 64.250,182.234 64.636,182.108 64.714 C 181.982 64.791,181.880 65.001,181.880 65.179 C 181.880 65.357,181.538 65.984,181.120 66.572 C 180.338 67.673,179.214 69.631,178.115 71.806 C 177.771 72.487,177.412 73.079,177.317 73.121 C 177.221 73.163,176.956 73.568,176.728 74.021 C 176.499 74.475,175.944 75.504,175.495 76.308 C 175.046 77.113,174.550 78.025,174.394 78.334 C 174.237 78.644,173.811 79.353,173.448 79.910 C 172.609 81.198,171.901 82.425,171.174 83.849 C 170.230 85.700,169.887 86.319,169.741 86.438 C 169.515 86.620,168.792 87.803,168.092 89.136 C 167.733 89.818,167.295 90.537,167.119 90.732 C 166.942 90.928,166.798 91.183,166.798 91.300 C 166.798 91.417,166.469 92.017,166.066 92.633 C 165.664 93.249,165.209 94.007,165.055 94.316 C 164.901 94.626,164.678 95.031,164.560 95.217 C 164.441 95.402,163.761 96.567,163.049 97.805 C 162.337 99.043,161.529 100.388,161.254 100.794 C 160.979 101.200,160.539 101.960,160.276 102.482 C 160.013 103.005,159.706 103.585,159.593 103.770 C 159.169 104.469,156.300 109.505,155.543 110.878 C 154.817 112.195,154.084 113.494,152.168 116.857 C 151.770 117.555,151.202 118.236,150.905 118.371 C 150.557 118.530,150.366 118.806,150.366 119.150 C 150.366 119.444,150.163 119.918,149.915 120.204 C 149.667 120.490,149.356 121.138,149.224 121.645 C 149.092 122.152,148.535 123.249,147.987 124.083 C 147.438 124.917,146.989 125.732,146.989 125.895 C 146.989 126.057,146.584 126.611,146.089 127.127 C 145.594 127.642,145.189 128.160,145.189 128.278 C 145.189 128.396,144.832 129.033,144.396 129.693 C 143.961 130.354,143.403 131.431,143.158 132.087 C 142.419 134.057,141.882 134.952,141.063 135.577 C 140.461 136.036,140.221 136.441,140.006 137.359 C 139.714 138.607,139.142 139.786,138.829 139.786 C 138.728 139.786,138.449 140.243,138.210 140.801 C 137.971 141.359,137.357 142.430,136.847 143.182 C 136.336 143.934,135.711 145.022,135.457 145.600 C 135.204 146.179,134.721 147.006,134.383 147.440 C 134.046 147.873,133.599 148.562,133.390 148.971 C 133.180 149.380,132.826 149.898,132.601 150.123 C 132.377 150.347,132.011 151.025,131.789 151.630 C 131.566 152.235,131.097 153.038,130.746 153.415 C 130.394 153.793,130.107 154.277,130.107 154.492 C 130.107 155.160,129.532 156.290,128.665 157.323 C 128.207 157.869,127.691 158.654,127.518 159.067 C 127.256 159.695,127.081 159.824,126.461 159.844 C 124.844 159.896,124.818 159.907,124.794 160.551 C 124.772 161.156,124.828 161.195,125.827 161.261 C 126.011 161.274,126.196 161.461,126.237 161.677 C 126.279 161.894,126.503 162.071,126.734 162.071 C 126.966 162.071,127.315 162.299,127.510 162.577 C 127.705 162.856,127.913 163.059,127.973 163.028 C 128.294 162.861,128.756 163.012,128.756 163.285 C 128.756 163.629,129.229 163.872,129.900 163.872 C 130.138 163.872,130.332 164.017,130.332 164.194 C 130.332 164.371,130.560 164.550,130.838 164.593 C 131.117 164.635,131.320 164.794,131.289 164.946 C 131.258 165.098,131.308 165.209,131.401 165.192 C 131.494 165.176,131.899 165.239,132.302 165.333 C 132.975 165.490,133.145 165.688,133.051 166.206 C 133.031 166.313,133.248 166.343,133.533 166.271 C 134.133 166.121,134.468 166.295,134.680 166.869 C 134.763 167.093,135.009 167.259,135.226 167.237 C 135.955 167.162,136.185 167.246,136.185 167.586 C 136.185 167.772,136.375 167.923,136.609 167.923 C 136.843 167.923,137.085 168.124,137.150 168.374 C 137.229 168.673,137.457 168.824,137.833 168.824 C 138.615 168.824,139.111 169.043,139.111 169.387 C 139.111 169.571,139.378 169.665,139.841 169.645 C 140.332 169.622,140.572 169.715,140.573 169.927 C 140.574 170.277,141.349 170.635,141.699 170.448 C 141.823 170.382,141.853 170.406,141.766 170.503 C 141.557 170.735,142.136 171.300,142.584 171.300 C 142.778 171.300,142.938 171.407,142.938 171.538 C 142.938 171.669,143.039 171.714,143.163 171.638 C 143.286 171.561,143.388 171.656,143.388 171.849 C 143.388 172.064,143.586 172.200,143.896 172.200 C 144.176 172.200,144.534 172.407,144.691 172.659 C 144.849 172.911,145.101 173.102,145.252 173.082 C 145.926 172.996,146.314 173.127,146.314 173.438 C 146.314 173.674,146.552 173.776,147.102 173.776 C 147.818 173.776,148.005 173.944,147.916 174.508 C 147.902 174.600,147.966 174.664,148.059 174.650 C 148.791 174.534,149.690 174.722,149.690 174.990 C 149.690 175.162,149.842 175.362,150.028 175.433 C 150.214 175.504,150.367 175.743,150.369 175.964 C 150.372 176.305,150.405 176.314,150.591 176.027 C 150.736 175.802,150.810 175.783,150.813 175.971 C 150.815 176.133,151.103 176.252,151.491 176.252 C 152.017 176.252,152.167 176.352,152.167 176.702 C 152.167 176.952,152.317 177.153,152.504 177.153 C 152.690 177.153,152.842 177.254,152.842 177.378 C 152.842 177.501,153.070 177.604,153.348 177.606 C 153.758 177.609,153.790 177.651,153.517 177.828 C 153.261 177.993,153.356 178.047,153.911 178.049 C 154.396 178.052,154.643 178.162,154.643 178.377 C 154.643 178.589,154.935 178.725,155.487 178.771 C 156.138 178.825,156.323 178.933,156.298 179.245 C 156.277 179.496,156.406 179.635,156.636 179.613 C 157.643 179.515,158.019 179.641,158.019 180.079 C 158.019 180.443,158.169 180.529,158.807 180.529 C 159.458 180.529,159.595 180.611,159.595 181.003 C 159.595 181.345,159.695 181.439,159.953 181.340 C 160.192 181.248,160.351 181.353,160.430 181.654 C 160.523 182.009,160.736 182.105,161.437 182.105 C 162.224 182.105,162.310 182.157,162.183 182.555 C 162.059 182.947,162.143 183.005,162.828 183.005 C 163.420 183.005,163.652 183.118,163.760 183.459 C 163.839 183.708,163.999 183.853,164.115 183.782 C 164.231 183.710,164.401 183.854,164.493 184.103 C 164.584 184.351,164.736 184.560,164.828 184.567 C 164.921 184.575,165.301 184.581,165.672 184.581 C 166.198 184.581,166.348 184.681,166.348 185.031 C 166.348 185.395,166.498 185.481,167.136 185.481 C 167.773 185.481,167.923 185.567,167.923 185.931 C 167.923 186.306,168.074 186.382,168.817 186.382 C 169.518 186.382,169.682 186.454,169.581 186.719 C 169.483 186.975,169.621 187.057,170.150 187.057 C 170.535 187.057,170.850 187.164,170.850 187.295 C 170.850 187.426,170.735 187.463,170.595 187.376 C 170.441 187.281,170.382 187.342,170.444 187.532 C 170.501 187.704,170.919 187.876,171.374 187.915 C 172.018 187.969,172.200 188.081,172.200 188.421 C 172.200 188.767,172.358 188.858,172.962 188.858 C 173.534 188.858,173.753 188.970,173.841 189.308 C 173.910 189.572,174.148 189.758,174.417 189.758 C 174.669 189.758,174.947 189.875,175.036 190.018 C 175.135 190.179,175.097 190.217,174.936 190.117 C 174.793 190.029,174.676 190.064,174.676 190.195 C 174.676 190.326,175.031 190.433,175.464 190.433 C 176.102 190.433,176.252 190.519,176.252 190.884 C 176.252 191.246,176.402 191.334,177.025 191.334 C 177.609 191.334,177.834 191.448,177.946 191.800 C 178.039 192.094,178.217 192.219,178.429 192.138 C 178.976 191.928,179.839 192.236,179.702 192.592 C 179.589 192.886,180.189 193.054,180.867 192.917 C 180.990 192.892,181.021 192.943,180.934 193.030 C 180.630 193.334,181.404 193.810,182.201 193.810 C 182.753 193.810,183.005 193.912,183.005 194.136 C 183.005 194.316,183.139 194.544,183.303 194.643 C 183.468 194.742,183.667 195.000,183.747 195.217 C 183.826 195.433,184.046 195.611,184.236 195.611 C 184.426 195.611,184.581 195.718,184.581 195.849 C 184.581 195.980,184.675 196.029,184.790 195.958 C 184.906 195.887,185.063 195.931,185.141 196.057 C 185.219 196.183,185.472 196.286,185.704 196.286 C 185.936 196.286,186.190 196.486,186.268 196.731 C 186.345 196.977,186.479 197.167,186.564 197.155 C 187.100 197.079,188.178 197.214,188.156 197.355 C 188.082 197.823,188.234 197.993,188.765 198.037 C 189.494 198.097,189.804 198.281,189.636 198.552 C 189.565 198.668,189.809 198.762,190.180 198.762 C 190.655 198.762,190.895 198.894,190.996 199.212 C 191.075 199.460,191.293 199.662,191.482 199.662 C 191.670 199.662,192.014 199.890,192.247 200.169 C 192.479 200.447,192.673 200.549,192.677 200.394 C 192.681 200.239,192.583 200.113,192.459 200.113 C 192.335 200.113,192.234 199.994,192.234 199.848 C 192.234 199.703,192.469 199.804,192.755 200.073 C 193.042 200.343,193.385 200.563,193.519 200.563 C 193.652 200.563,193.820 200.715,193.891 200.900 C 193.971 201.109,194.314 201.238,194.789 201.238 C 195.372 201.238,195.587 201.348,195.677 201.695 C 195.743 201.946,195.882 202.136,195.985 202.118 C 196.636 202.004,197.148 202.194,197.251 202.589 C 197.423 203.246,200.224 203.273,200.274 202.617 C 200.292 202.370,200.079 202.093,199.759 201.947 C 199.129 201.660,199.073 201.409,199.550 201.013 C 199.736 200.859,199.887 200.566,199.887 200.361 C 199.887 200.157,200.221 199.483,200.629 198.864 C 201.037 198.244,201.809 196.879,202.345 195.830 C 202.881 194.781,203.475 193.744,203.665 193.527 C 204.034 193.105,204.463 192.406,204.804 191.671 C 204.918 191.424,205.694 190.056,206.527 188.633 C 207.361 187.209,208.300 185.588,208.614 185.031 C 208.927 184.474,209.372 183.776,209.601 183.481 C 209.830 183.186,210.017 182.867,210.017 182.772 C 210.017 182.626,211.396 180.198,213.318 176.961 C 213.586 176.509,214.013 175.734,214.266 175.239 C 214.519 174.744,215.235 173.478,215.856 172.425 C 216.477 171.373,217.142 170.208,217.333 169.837 C 217.525 169.465,217.957 168.696,218.295 168.126 C 218.632 167.557,219.303 166.392,219.786 165.538 C 220.269 164.683,221.009 163.453,221.430 162.804 C 221.851 162.154,222.301 161.318,222.431 160.946 C 222.560 160.574,222.751 160.270,222.854 160.270 C 222.958 160.270,223.113 160.042,223.200 159.764 C 223.286 159.485,223.530 159.004,223.743 158.694 C 223.955 158.385,224.513 157.423,224.981 156.556 C 225.450 155.689,225.998 154.727,226.198 154.417 C 226.919 153.298,227.130 152.949,227.281 152.617 C 227.365 152.431,227.772 151.750,228.183 151.103 C 228.595 150.455,229.028 149.675,229.144 149.369 C 229.261 149.063,229.637 148.377,229.980 147.844 C 230.683 146.755,230.635 146.835,232.245 144.060 C 232.895 142.940,233.427 141.970,233.427 141.906 C 233.427 141.841,233.884 141.088,234.443 140.233 C 235.001 139.377,235.559 138.410,235.684 138.083 C 235.808 137.757,236.238 136.968,236.641 136.331 C 237.043 135.693,237.493 134.969,237.641 134.721 C 238.483 133.317,239.972 130.745,240.509 129.769 C 241.113 128.671,242.272 126.651,243.261 124.976 C 243.531 124.517,243.894 123.889,244.068 123.579 C 244.241 123.270,244.619 122.611,244.907 122.116 C 245.195 121.621,245.574 120.936,245.749 120.595 C 245.924 120.254,246.262 119.871,246.500 119.743 C 246.738 119.616,246.933 119.329,246.933 119.106 C 246.933 118.883,247.323 118.152,247.800 117.482 C 248.277 116.812,248.847 115.720,249.065 115.056 C 249.346 114.202,249.649 113.741,250.100 113.482 C 250.584 113.204,250.854 112.755,251.220 111.616 C 251.517 110.694,251.956 109.874,252.361 109.485 C 252.769 109.095,253.073 108.526,253.158 107.993 C 253.248 107.433,253.512 106.958,253.917 106.633 C 254.258 106.359,254.799 105.612,255.117 104.975 C 255.436 104.337,256.016 103.343,256.406 102.764 C 256.796 102.186,257.310 101.065,257.548 100.273 C 257.981 98.829,258.270 98.395,259.206 97.782 C 259.498 97.590,259.834 97.006,260.006 96.392 C 260.170 95.809,260.588 94.909,260.937 94.393 C 261.286 93.876,261.720 93.030,261.903 92.514 C 262.085 91.997,262.543 91.184,262.921 90.707 C 263.299 90.230,263.965 89.126,264.402 88.252 C 264.973 87.111,265.348 86.626,265.734 86.529 C 266.166 86.420,266.300 86.199,266.421 85.387 C 266.505 84.833,266.814 84.094,267.108 83.744 C 267.725 83.010,268.530 81.329,268.538 80.759 C 268.545 80.140,269.519 79.667,270.887 79.618 L 272.151 79.572 272.082 77.546 C 272.029 75.968,271.941 75.514,271.685 75.490 C 271.504 75.474,271.128 75.448,270.850 75.434 C 270.561 75.419,270.343 75.263,270.343 75.070 C 270.343 74.885,270.242 74.733,270.118 74.733 C 269.994 74.733,269.690 74.530,269.443 74.282 C 269.195 74.035,268.739 73.832,268.430 73.832 C 267.924 73.832,267.755 73.618,267.844 73.090 C 267.861 72.991,267.746 72.927,267.589 72.948 C 266.955 73.031,266.068 72.921,266.093 72.763 C 266.165 72.309,266.025 72.124,265.583 72.091 C 265.317 72.071,264.987 71.933,264.851 71.785 C 264.669 71.587,264.674 71.555,264.869 71.665 C 265.015 71.747,265.199 71.711,265.276 71.585 C 265.362 71.447,265.107 71.356,264.632 71.356 C 264.043 71.356,263.810 71.243,263.703 70.906 C 263.597 70.571,263.362 70.456,262.787 70.456 C 262.156 70.456,262.015 70.371,262.015 69.990 C 262.015 69.644,261.884 69.534,261.508 69.564 C 260.544 69.642,260.214 69.554,260.214 69.218 C 260.214 69.032,260.062 68.880,259.876 68.880 C 259.690 68.880,259.539 68.739,259.539 68.567 C 259.539 68.394,259.381 68.193,259.189 68.119 C 258.997 68.045,258.896 68.076,258.966 68.188 C 259.035 68.300,258.801 68.282,258.446 68.148 C 258.086 68.012,257.811 67.747,257.825 67.548 C 257.843 67.296,257.651 67.192,257.170 67.192 C 256.772 67.192,256.260 66.977,255.933 66.674 C 255.626 66.388,255.199 66.202,254.981 66.259 C 254.711 66.329,254.586 66.232,254.586 65.948 C 254.586 65.691,254.395 65.508,254.080 65.463 C 253.740 65.415,253.595 65.261,253.640 64.994 C 253.677 64.775,253.627 64.610,253.528 64.626 C 252.762 64.755,252.150 64.553,252.040 64.135 C 251.956 63.811,251.756 63.680,251.395 63.710 C 250.516 63.782,250.310 63.717,250.310 63.365 C 250.310 63.180,250.158 63.028,249.972 63.028 C 249.786 63.028,249.633 62.901,249.631 62.746 C 249.628 62.559,249.555 62.577,249.409 62.802 C 249.264 63.028,249.190 63.046,249.187 62.859 C 249.186 62.704,249.032 62.577,248.846 62.577 C 248.661 62.577,248.509 62.476,248.509 62.352 C 248.509 62.228,248.157 62.127,247.728 62.127 C 247.193 62.127,246.981 62.038,247.056 61.844 C 247.115 61.689,246.935 61.457,246.655 61.330 C 246.374 61.202,246.171 60.975,246.201 60.825 C 246.237 60.653,245.974 60.551,245.496 60.551 C 244.924 60.551,244.705 60.440,244.617 60.101 C 244.552 59.854,244.338 59.651,244.140 59.651 C 243.943 59.651,243.782 59.537,243.782 59.398 C 243.782 59.214,243.697 59.216,243.470 59.404 C 243.231 59.603,243.130 59.586,243.033 59.333 C 242.958 59.139,243.063 58.963,243.288 58.903 C 243.497 58.848,243.289 58.791,242.825 58.777 C 242.198 58.757,241.981 58.654,241.981 58.376 C 241.981 58.169,241.914 58.067,241.833 58.148 C 241.751 58.230,241.550 58.185,241.385 58.048 C 241.221 57.912,240.943 57.855,240.768 57.922 C 240.577 57.995,240.404 57.870,240.336 57.610 C 240.251 57.285,240.024 57.175,239.438 57.175 C 238.830 57.175,238.661 57.087,238.686 56.781 C 238.709 56.481,238.515 56.370,237.873 56.317 C 237.213 56.263,237.029 56.152,237.029 55.813 C 237.029 55.498,236.891 55.394,236.522 55.433 C 236.160 55.471,236.025 55.374,236.047 55.093 C 236.071 54.789,235.904 54.699,235.315 54.699 C 234.733 54.699,234.553 54.604,234.553 54.297 C 234.553 54.005,234.353 53.879,233.830 53.839 C 233.091 53.783,232.678 53.425,232.913 53.045 C 232.988 52.923,232.789 52.882,232.442 52.948 C 231.934 53.045,231.861 52.998,231.974 52.643 C 232.089 52.279,231.982 52.223,231.181 52.223 C 230.425 52.223,230.268 52.151,230.322 51.829 C 230.374 51.521,230.203 51.420,229.544 51.365 C 228.873 51.310,228.700 51.203,228.700 50.845 C 228.700 50.550,228.563 50.408,228.306 50.434 C 227.475 50.518,227.173 50.407,227.059 49.972 C 226.980 49.671,226.752 49.522,226.371 49.522 C 226.057 49.522,225.728 49.405,225.640 49.262 C 225.544 49.107,225.578 49.063,225.723 49.153 C 225.858 49.236,226.031 49.201,226.109 49.075 C 226.195 48.937,225.935 48.846,225.449 48.846 C 224.915 48.846,224.648 48.742,224.648 48.533 C 224.648 48.170,224.169 47.946,223.392 47.946 C 223.079 47.946,222.847 47.814,222.847 47.636 C 222.847 47.465,222.544 47.199,222.172 47.046 C 221.801 46.892,221.497 46.677,221.497 46.568 C 221.497 46.459,221.290 46.370,221.037 46.370 C 220.785 46.370,220.372 46.179,220.121 45.945 C 219.870 45.711,219.357 45.458,218.981 45.383 C 218.560 45.299,218.338 45.138,218.405 44.964 C 218.474 44.784,218.277 44.665,217.859 44.634 C 217.155 44.583,216.466 44.059,216.724 43.773 C 216.811 43.676,216.700 43.663,216.477 43.743 C 216.235 43.830,216.127 43.799,216.209 43.667 C 216.284 43.544,216.233 43.444,216.095 43.444 C 215.956 43.444,215.905 43.343,215.982 43.219 C 216.068 43.079,215.651 42.994,214.883 42.994 C 213.765 42.994,213.653 42.950,213.731 42.544 C 213.798 42.197,213.697 42.093,213.293 42.093 C 212.931 42.093,212.778 41.971,212.799 41.699 C 212.821 41.429,212.654 41.295,212.268 41.271 C 211.958 41.253,211.579 41.227,211.424 41.215 C 211.269 41.203,211.142 41.041,211.142 40.855 C 211.142 40.670,211.002 40.518,210.831 40.518 C 210.660 40.518,210.465 40.309,210.398 40.054 C 210.331 39.798,210.142 39.608,209.978 39.630 C 208.965 39.768,208.469 39.606,208.554 39.165 C 208.628 38.783,208.534 38.720,207.959 38.764 C 207.508 38.798,207.203 38.684,207.060 38.429 C 206.933 38.202,206.574 38.042,206.194 38.042 C 205.743 38.042,205.502 37.904,205.402 37.591 C 205.312 37.308,205.062 37.141,204.725 37.141 C 204.431 37.141,204.129 37.041,204.053 36.919 C 203.972 36.787,204.071 36.756,204.296 36.842 C 204.559 36.943,204.644 36.892,204.572 36.675 C 204.514 36.503,204.130 36.335,203.718 36.301 C 203.276 36.266,202.839 36.056,202.653 35.791 C 202.480 35.543,202.103 35.340,201.816 35.340 C 201.528 35.340,201.167 35.189,201.013 35.003 C 200.836 34.789,200.339 34.665,199.663 34.665 L 198.594 34.665 198.487 35.734 M126.505 78.428 C 126.505 78.624,126.666 78.784,126.862 78.784 C 127.259 78.784,127.190 78.300,126.773 78.161 C 126.626 78.112,126.505 78.232,126.505 78.428 " stroke="none" fill="#e4e4e4" fill-rule="evenodd"></path><path id="path2" d="M125.571 75.577 C 125.432 76.269,125.543 76.895,125.829 77.024 C 126.107 77.150,126.098 77.180,125.774 77.193 C 125.535 77.203,125.380 77.386,125.380 77.659 C 125.380 77.908,125.230 78.109,125.045 78.109 C 124.601 78.109,124.520 159.904,124.963 160.178 C 125.132 160.282,125.163 160.241,125.052 160.061 C 124.937 159.875,125.018 159.798,125.299 159.828 C 126.747 159.981,127.202 159.825,127.518 159.067 C 127.691 158.654,128.207 157.869,128.665 157.323 C 129.532 156.290,130.107 155.160,130.107 154.492 C 130.107 154.277,130.394 153.793,130.746 153.415 C 131.097 153.038,131.566 152.235,131.789 151.630 C 132.011 151.025,132.377 150.347,132.601 150.123 C 132.826 149.898,133.180 149.380,133.390 148.971 C 133.599 148.562,134.046 147.873,134.383 147.440 C 134.721 147.006,135.204 146.179,135.457 145.600 C 135.711 145.022,136.336 143.934,136.847 143.182 C 137.357 142.430,137.971 141.359,138.210 140.801 C 138.449 140.243,138.728 139.786,138.829 139.786 C 139.142 139.786,139.714 138.607,140.006 137.359 C 140.221 136.441,140.461 136.036,141.063 135.577 C 141.882 134.952,142.419 134.057,143.158 132.087 C 143.403 131.431,143.961 130.354,144.396 129.693 C 144.832 129.033,145.189 128.396,145.189 128.278 C 145.189 128.160,145.594 127.642,146.089 127.127 C 146.584 126.611,146.989 126.057,146.989 125.895 C 146.989 125.732,147.438 124.917,147.987 124.083 C 148.535 123.249,149.092 122.152,149.224 121.645 C 149.356 121.138,149.667 120.490,149.915 120.204 C 150.644 119.363,150.399 118.228,149.114 116.488 C 148.840 116.117,148.355 115.294,148.038 114.659 C 147.720 114.025,147.317 113.451,147.141 113.383 C 146.965 113.316,146.756 112.912,146.676 112.486 C 146.596 112.060,146.121 111.127,145.621 110.413 C 145.120 109.698,144.550 108.697,144.352 108.187 C 144.155 107.677,143.870 107.107,143.720 106.922 C 143.480 106.625,142.301 104.633,140.191 100.957 C 139.835 100.338,139.454 99.679,139.343 99.494 C 138.494 98.074,136.074 93.907,135.590 93.031 C 134.964 91.897,134.166 90.680,133.925 90.490 C 133.846 90.428,133.672 90.054,133.537 89.660 C 133.402 89.265,132.902 88.353,132.426 87.634 C 131.951 86.914,131.270 85.746,130.913 85.037 C 130.557 84.329,130.103 83.568,129.905 83.346 C 129.706 83.125,129.088 82.033,128.531 80.920 C 127.762 79.383,127.398 78.880,127.016 78.826 C 126.675 78.777,126.510 78.596,126.503 78.263 C 126.498 77.993,126.458 77.442,126.415 77.040 C 126.372 76.638,126.324 76.106,126.308 75.858 C 126.282 75.441,125.647 75.198,125.571 75.577 M269.951 79.703 C 269.071 79.883,268.544 80.285,268.538 80.782 C 268.530 81.333,267.714 83.023,267.108 83.744 C 266.814 84.094,266.505 84.833,266.421 85.387 C 266.300 86.199,266.166 86.420,265.734 86.529 C 265.348 86.626,264.973 87.111,264.402 88.252 C 263.965 89.126,263.299 90.230,262.921 90.707 C 262.543 91.184,262.085 91.997,261.903 92.514 C 261.720 93.030,261.286 93.876,260.937 94.393 C 260.588 94.909,260.170 95.809,260.006 96.392 C 259.834 97.006,259.498 97.590,259.206 97.782 C 258.270 98.395,257.981 98.829,257.548 100.273 C 257.310 101.065,256.796 102.186,256.406 102.764 C 256.016 103.343,255.436 104.337,255.117 104.975 C 254.799 105.612,254.258 106.359,253.917 106.633 C 253.512 106.958,253.248 107.433,253.158 107.993 C 253.073 108.526,252.769 109.095,252.361 109.485 C 251.956 109.874,251.517 110.694,251.220 111.616 C 250.854 112.755,250.584 113.204,250.100 113.482 C 249.649 113.741,249.346 114.202,249.065 115.056 C 248.847 115.720,248.277 116.812,247.800 117.482 C 246.795 118.893,246.776 119.019,247.401 120.018 C 248.810 122.269,249.719 123.836,250.316 125.042 C 250.684 125.785,251.438 127.102,251.992 127.968 C 252.546 128.835,253.126 129.797,253.282 130.107 C 253.438 130.416,253.898 131.139,254.303 131.712 C 254.709 132.286,255.335 133.400,255.694 134.189 C 256.053 134.977,256.615 136.015,256.943 136.496 C 257.271 136.976,257.810 137.888,258.140 138.521 C 258.471 139.155,259.073 140.178,259.478 140.794 C 259.883 141.410,260.214 142.002,260.214 142.110 C 260.214 142.217,260.427 142.604,260.687 142.970 C 260.948 143.336,261.536 144.314,261.995 145.143 C 263.125 147.186,263.041 147.038,265.630 151.491 C 266.889 153.658,268.145 155.785,268.420 156.218 C 268.696 156.652,269.092 157.368,269.301 157.811 C 269.906 159.089,270.853 160.089,271.531 160.163 L 272.144 160.230 272.141 120.126 C 272.139 98.069,272.063 79.921,271.972 79.797 C 271.777 79.532,270.968 79.494,269.951 79.703 " stroke="none" fill="#fbd4d4" fill-rule="evenodd"></path><path id="path3" d="M126.280 75.803 C 126.280 76.051,126.432 76.379,126.618 76.533 C 126.899 76.767,126.956 76.738,126.956 76.364 C 126.956 76.116,126.804 75.787,126.618 75.633 C 126.337 75.400,126.280 75.428,126.280 75.803 M127.307 78.053 C 127.661 79.378,128.779 81.442,129.519 82.137 C 129.825 82.424,130.022 82.797,129.957 82.965 C 129.893 83.133,130.031 83.553,130.266 83.897 C 130.500 84.242,130.811 84.803,130.957 85.144 C 131.103 85.484,131.326 85.763,131.453 85.763 C 131.579 85.763,131.683 85.918,131.683 86.109 C 131.683 86.651,133.332 89.028,133.708 89.027 C 133.938 89.027,134.069 89.304,134.117 89.889 C 134.158 90.390,134.512 91.259,134.961 91.961 C 135.386 92.625,135.734 93.216,135.734 93.273 C 135.734 93.329,136.454 94.569,137.333 96.027 C 138.212 97.484,139.000 98.836,139.085 99.029 C 139.479 99.933,140.155 100.829,140.514 100.923 C 140.764 100.988,140.898 101.221,140.877 101.554 C 140.859 101.846,141.489 103.172,142.285 104.518 C 143.077 105.858,143.869 107.225,144.045 107.555 C 144.221 107.886,144.500 108.291,144.664 108.455 C 144.829 108.620,144.963 108.903,144.963 109.085 C 144.963 109.267,145.318 109.942,145.751 110.586 C 146.185 111.229,146.539 111.896,146.539 112.067 C 146.539 112.308,146.611 112.320,146.851 112.120 C 147.256 111.785,146.939 110.203,146.307 109.398 C 146.064 109.088,145.613 108.361,145.306 107.782 C 144.998 107.203,144.652 106.670,144.536 106.598 C 144.420 106.526,143.797 105.481,143.153 104.275 C 142.508 103.069,141.805 101.880,141.589 101.632 C 141.374 101.384,140.765 100.422,140.236 99.494 C 139.706 98.565,139.147 97.653,138.993 97.468 C 138.840 97.282,138.637 96.877,138.542 96.567 C 138.448 96.258,138.145 95.701,137.870 95.329 C 137.257 94.502,136.313 92.613,136.112 91.809 C 135.987 91.309,134.803 89.519,133.940 88.524 C 133.807 88.372,133.637 87.938,133.561 87.560 C 133.486 87.181,133.248 86.778,133.034 86.663 C 132.819 86.548,132.368 85.868,132.032 85.152 C 131.387 83.778,130.199 81.801,129.718 81.301 C 129.560 81.137,129.432 80.763,129.432 80.470 C 129.432 80.177,129.330 79.874,129.207 79.797 C 129.083 79.721,128.981 79.465,128.981 79.229 C 128.981 78.829,127.490 76.984,127.167 76.984 C 127.087 76.984,127.150 77.465,127.307 78.053 M144.063 100.389 C 143.768 100.576,143.777 100.654,144.127 101.005 C 144.478 101.356,144.557 101.364,144.743 101.069 C 145.140 100.441,144.692 99.992,144.063 100.389 M147.583 113.337 C 147.518 113.507,147.662 113.896,147.902 114.202 C 148.143 114.508,148.340 114.880,148.340 115.029 C 148.340 115.177,148.492 115.240,148.678 115.169 C 148.937 115.069,149.015 115.217,149.015 115.807 C 149.015 116.229,149.127 116.643,149.263 116.728 C 149.400 116.812,149.654 117.223,149.829 117.641 C 150.222 118.582,150.455 118.599,150.821 117.715 C 151.097 117.047,151.073 116.995,149.964 115.909 C 149.336 115.294,148.709 114.448,148.570 114.028 C 148.298 113.204,147.775 112.837,147.583 113.337 M246.829 119.825 C 246.762 120.033,246.659 120.358,246.599 120.549 C 246.539 120.739,246.626 120.947,246.792 121.011 C 246.958 121.074,247.228 121.533,247.392 122.029 C 247.556 122.526,247.955 123.155,248.279 123.428 C 248.837 123.898,249.859 125.698,249.859 126.211 C 249.859 126.343,250.019 126.583,250.215 126.745 C 250.410 126.907,250.828 127.553,251.144 128.179 C 251.461 128.806,251.782 129.370,251.858 129.432 C 252.211 129.717,252.951 130.951,253.080 131.471 C 253.158 131.788,253.478 132.396,253.790 132.821 C 254.102 133.247,254.517 133.950,254.711 134.384 C 255.419 135.962,255.742 136.542,256.466 137.535 C 256.872 138.092,257.344 139.055,257.515 139.674 C 257.716 140.401,258.159 141.158,258.764 141.812 C 259.280 142.369,259.817 143.180,259.957 143.615 C 260.098 144.049,260.442 144.657,260.722 144.965 C 261.002 145.274,261.361 145.779,261.520 146.089 C 261.679 146.398,262.185 147.279,262.643 148.046 C 263.102 148.813,263.903 150.181,264.422 151.085 C 264.941 151.989,265.625 153.078,265.941 153.505 C 266.258 153.931,266.517 154.458,266.517 154.675 C 266.517 154.893,266.662 155.152,266.839 155.251 C 267.016 155.350,267.716 156.518,268.394 157.846 C 269.979 160.952,270.065 161.039,271.112 160.601 C 272.143 160.171,272.127 160.097,271.019 160.160 C 270.186 160.207,270.118 160.166,270.113 159.621 C 270.110 159.297,269.910 158.779,269.668 158.469 C 269.426 158.160,269.226 157.826,269.223 157.728 C 269.220 157.629,268.595 156.515,267.835 155.251 C 267.074 153.988,266.279 152.651,266.066 152.279 C 265.854 151.908,265.160 150.724,264.523 149.649 C 263.886 148.574,263.365 147.647,263.365 147.590 C 263.365 147.532,262.960 146.819,262.465 146.003 C 261.970 145.188,261.564 144.462,261.564 144.389 C 261.564 144.316,261.261 143.815,260.889 143.275 C 260.518 142.735,260.214 142.208,260.214 142.104 C 260.214 142.000,259.883 141.410,259.478 140.794 C 259.073 140.178,258.471 139.155,258.140 138.521 C 257.810 137.888,257.271 136.976,256.943 136.496 C 256.615 136.015,256.053 134.977,255.694 134.189 C 255.335 133.400,254.685 132.260,254.251 131.656 C 253.816 131.051,253.461 130.462,253.461 130.348 C 253.461 130.233,253.328 130.005,253.165 129.842 C 253.002 129.678,252.489 128.886,252.025 128.081 C 251.561 127.276,250.893 126.162,250.541 125.605 C 250.189 125.048,249.377 123.579,248.735 122.341 C 247.392 119.748,247.013 119.248,246.829 119.825 M261.888 152.463 C 261.695 152.962,262.133 153.488,262.466 153.156 C 262.617 153.005,262.585 152.785,262.369 152.492 C 262.062 152.075,262.039 152.073,261.888 152.463 " stroke="none" fill="#d1cdc4" fill-rule="evenodd"></path><path id="path4" d="M198.087 35.130 C 198.087 35.714,197.695 36.466,197.390 36.466 C 197.263 36.466,197.232 36.349,197.320 36.206 C 197.410 36.061,197.383 36.007,197.259 36.084 C 197.136 36.159,197.079 36.510,197.130 36.863 C 197.190 37.268,197.093 37.613,196.868 37.801 C 196.672 37.964,196.511 38.236,196.511 38.406 C 196.511 38.577,196.162 39.202,195.735 39.796 C 195.308 40.390,194.850 41.125,194.717 41.428 C 194.583 41.732,194.229 42.386,193.929 42.881 C 193.628 43.376,193.276 44.017,193.145 44.305 C 193.015 44.593,192.756 44.980,192.571 45.165 C 192.386 45.351,192.234 45.692,192.234 45.925 C 192.234 46.158,192.107 46.429,191.953 46.528 C 191.524 46.802,190.658 48.110,190.658 48.484 C 190.658 48.665,190.524 48.949,190.359 49.113 C 190.035 49.438,189.708 50.014,188.640 52.143 C 188.259 52.905,187.797 53.651,187.614 53.803 C 187.431 53.955,187.282 54.206,187.282 54.361 C 187.282 54.517,187.140 54.762,186.966 54.906 C 186.793 55.050,186.582 55.442,186.498 55.776 C 186.414 56.111,185.999 56.808,185.576 57.324 C 185.152 57.841,184.806 58.383,184.806 58.528 C 184.806 58.673,184.603 59.050,184.356 59.365 C 184.108 59.679,183.905 60.063,183.905 60.217 C 183.905 60.370,183.763 60.614,183.590 60.758 C 183.416 60.902,183.206 61.294,183.122 61.628 C 183.038 61.962,182.892 62.287,182.797 62.350 C 182.612 62.473,182.121 63.340,181.531 64.586 C 181.330 65.009,180.820 65.809,180.397 66.362 C 179.975 66.916,179.629 67.502,179.629 67.663 C 179.629 67.825,179.494 68.038,179.329 68.137 C 179.164 68.236,178.746 68.902,178.400 69.616 C 178.054 70.330,177.682 70.969,177.574 71.036 C 177.466 71.103,177.375 71.329,177.371 71.538 C 177.368 71.748,176.963 72.525,176.471 73.265 C 175.979 74.005,175.577 74.728,175.577 74.873 C 175.577 75.017,175.425 75.193,175.239 75.264 C 175.053 75.336,174.902 75.592,174.902 75.835 C 174.902 76.078,174.763 76.415,174.594 76.584 C 174.424 76.754,174.209 77.141,174.115 77.444 C 174.022 77.748,173.755 78.178,173.523 78.399 C 173.291 78.621,173.101 78.961,173.101 79.155 C 173.101 79.349,172.813 79.877,172.462 80.328 C 172.110 80.779,171.537 81.705,171.187 82.386 C 170.838 83.067,170.467 83.776,170.362 83.962 C 170.257 84.147,170.047 84.553,169.896 84.862 C 169.745 85.172,169.566 85.476,169.499 85.537 C 169.108 85.897,167.824 87.993,166.810 89.927 C 165.997 91.477,165.826 91.763,164.836 93.223 C 164.438 93.810,164.047 94.549,163.967 94.866 C 163.888 95.183,163.741 95.442,163.641 95.442 C 163.541 95.442,163.139 96.099,162.747 96.902 C 162.356 97.706,161.950 98.416,161.846 98.481 C 161.741 98.545,161.589 98.901,161.508 99.271 C 161.426 99.641,161.216 99.944,161.040 99.944 C 160.864 99.944,160.720 100.088,160.720 100.265 C 160.720 100.442,160.590 100.721,160.431 100.884 C 159.985 101.344,158.920 103.252,158.920 103.592 C 158.920 103.759,158.717 104.069,158.469 104.281 C 158.222 104.493,158.019 104.859,158.019 105.095 C 158.019 105.330,157.880 105.576,157.710 105.641 C 157.541 105.707,157.332 106.039,157.246 106.380 C 157.160 106.722,156.742 107.525,156.317 108.166 C 155.891 108.807,155.543 109.404,155.543 109.493 C 155.543 109.582,155.234 110.104,154.855 110.654 C 154.477 111.204,154.018 111.982,153.835 112.383 C 153.652 112.784,153.304 113.416,153.060 113.787 C 152.817 114.159,152.507 114.741,152.370 115.082 C 152.234 115.422,152.054 115.701,151.971 115.701 C 151.828 115.701,151.555 116.176,150.714 117.892 L 150.357 118.621 150.901 118.373 C 151.200 118.237,151.770 117.555,152.168 116.857 C 154.084 113.494,154.817 112.195,155.543 110.878 C 156.300 109.505,159.169 104.469,159.593 103.770 C 159.706 103.585,160.013 103.005,160.276 102.482 C 160.539 101.960,160.979 101.200,161.254 100.794 C 161.529 100.388,162.337 99.043,163.049 97.805 C 163.761 96.567,164.441 95.402,164.560 95.217 C 164.678 95.031,164.901 94.626,165.055 94.316 C 165.209 94.007,165.664 93.249,166.066 92.633 C 166.469 92.017,166.798 91.417,166.798 91.300 C 166.798 91.183,166.942 90.928,167.119 90.732 C 167.295 90.537,167.733 89.818,168.092 89.136 C 168.792 87.803,169.515 86.620,169.741 86.438 C 169.887 86.319,170.230 85.700,171.174 83.849 C 171.901 82.425,172.609 81.198,173.448 79.910 C 173.811 79.353,174.237 78.644,174.394 78.334 C 174.550 78.025,175.046 77.113,175.495 76.308 C 175.944 75.504,176.499 74.475,176.728 74.021 C 176.956 73.568,177.221 73.163,177.317 73.121 C 177.412 73.079,177.771 72.487,178.115 71.806 C 179.214 69.631,180.338 67.673,181.120 66.572 C 181.538 65.984,181.880 65.357,181.880 65.179 C 181.880 65.001,181.982 64.791,182.108 64.714 C 182.234 64.636,182.486 64.250,182.669 63.856 C 182.851 63.462,183.457 62.380,184.014 61.452 C 184.570 60.523,185.090 59.586,185.167 59.370 C 185.245 59.153,185.388 58.976,185.485 58.976 C 185.583 58.976,185.779 58.697,185.922 58.357 C 186.221 57.645,186.708 56.782,187.561 55.453 C 187.890 54.939,188.525 53.824,188.971 52.976 C 189.417 52.129,189.972 51.131,190.205 50.760 C 190.438 50.388,190.846 49.657,191.111 49.134 C 191.376 48.611,191.853 47.801,192.171 47.333 C 192.489 46.866,193.036 45.976,193.386 45.357 C 195.870 40.970,196.434 39.993,197.350 38.492 C 198.387 36.793,198.937 34.665,198.340 34.665 C 198.201 34.665,198.087 34.874,198.087 35.130 M184.903 41.668 C 184.818 41.806,184.885 42.003,185.052 42.107 C 185.373 42.305,185.763 41.918,185.566 41.598 C 185.407 41.341,185.084 41.376,184.903 41.668 M170.546 50.077 C 170.476 50.259,170.519 50.469,170.640 50.544 C 170.762 50.619,170.846 50.597,170.829 50.495 C 170.753 50.062,170.871 49.881,171.047 50.160 C 171.200 50.401,171.264 50.390,171.374 50.103 C 171.469 49.857,171.382 49.747,171.092 49.747 C 170.861 49.747,170.616 49.895,170.546 50.077 M170.075 50.778 C 170.506 51.129,170.506 51.132,170.062 50.990 C 169.718 50.880,169.674 50.908,169.873 51.109 C 170.255 51.494,170.725 51.152,170.383 50.740 C 170.238 50.565,170.011 50.422,169.879 50.422 C 169.746 50.422,169.835 50.582,170.075 50.778 M166.798 52.628 C 166.798 52.975,166.898 53.071,167.154 52.972 C 167.351 52.897,167.427 52.772,167.323 52.695 C 167.220 52.618,167.060 52.464,166.967 52.352 C 166.874 52.239,166.798 52.364,166.798 52.628 M143.081 65.841 C 143.010 66.027,143.050 66.179,143.170 66.179 C 143.290 66.179,143.457 66.182,143.542 66.185 C 143.628 66.189,143.720 66.037,143.748 65.847 C 143.813 65.404,143.251 65.398,143.081 65.841 M137.425 69.102 C 137.259 69.370,137.470 69.781,137.774 69.781 C 138.047 69.781,138.049 69.171,137.776 69.002 C 137.661 68.931,137.503 68.976,137.425 69.102 M126.586 77.219 C 126.662 77.600,126.889 78.134,127.090 78.405 C 127.446 78.884,127.452 78.876,127.296 78.109 C 127.209 77.676,127.130 77.199,127.121 77.050 C 127.113 76.900,126.958 76.721,126.777 76.652 C 126.515 76.551,126.476 76.668,126.586 77.219 M129.168 82.048 C 129.651 82.924,129.825 83.110,129.959 82.893 C 130.033 82.774,129.829 82.434,129.507 82.137 C 129.014 81.684,128.960 81.670,129.168 82.048 M133.483 89.190 C 133.483 89.362,133.638 89.700,133.826 89.940 C 134.153 90.357,134.166 90.347,134.108 89.719 C 134.047 89.066,133.483 88.589,133.483 89.190 M140.236 101.023 C 140.236 101.142,140.400 101.375,140.600 101.541 C 140.915 101.802,140.952 101.786,140.881 101.418 C 140.797 100.981,140.236 100.637,140.236 101.023 M146.860 112.175 C 146.708 112.570,147.124 113.450,147.462 113.450 C 147.789 113.450,147.612 112.041,147.271 111.929 C 147.116 111.878,146.931 111.989,146.860 112.175 M148.621 115.211 C 148.400 115.351,148.411 115.483,148.670 115.826 C 148.987 116.245,149.001 116.237,149.008 115.644 C 149.016 114.958,149.017 114.959,148.621 115.211 M246.442 119.762 C 246.233 119.883,245.921 120.260,245.747 120.599 C 245.573 120.938,245.195 121.621,244.907 122.116 C 244.619 122.611,244.241 123.270,244.068 123.579 C 243.894 123.889,243.531 124.517,243.261 124.976 C 242.272 126.651,241.113 128.671,240.509 129.769 C 239.972 130.745,238.483 133.317,237.641 134.721 C 237.493 134.969,237.043 135.693,236.641 136.331 C 236.238 136.968,235.808 137.757,235.684 138.083 C 235.559 138.410,235.001 139.377,234.443 140.233 C 233.884 141.088,233.427 141.841,233.427 141.906 C 233.427 141.970,232.895 142.940,232.245 144.060 C 230.635 146.835,230.683 146.755,229.980 147.844 C 229.637 148.377,229.261 149.063,229.144 149.369 C 228.961 149.850,228.154 151.237,227.179 152.742 C 227.024 152.983,226.830 153.331,226.749 153.517 C 226.667 153.703,226.428 154.108,226.218 154.418 C 226.007 154.727,225.450 155.689,224.981 156.556 C 224.513 157.423,223.955 158.385,223.743 158.694 C 223.530 159.004,223.286 159.485,223.200 159.764 C 223.113 160.042,222.958 160.270,222.854 160.270 C 222.751 160.270,222.560 160.574,222.431 160.946 C 222.301 161.318,221.851 162.154,221.430 162.804 C 221.009 163.453,220.269 164.683,219.786 165.538 C 219.303 166.392,218.632 167.557,218.295 168.126 C 217.957 168.696,217.525 169.465,217.333 169.837 C 217.142 170.208,216.477 171.373,215.856 172.425 C 215.235 173.478,214.519 174.744,214.266 175.239 C 214.013 175.734,213.586 176.509,213.318 176.961 C 211.396 180.198,210.017 182.626,210.017 182.772 C 210.017 182.867,209.830 183.186,209.601 183.481 C 209.372 183.776,208.927 184.474,208.614 185.031 C 208.300 185.588,207.361 187.209,206.527 188.633 C 205.694 190.056,204.918 191.424,204.804 191.671 C 204.463 192.406,204.034 193.105,203.665 193.527 C 203.475 193.744,202.881 194.781,202.345 195.830 C 201.809 196.879,201.037 198.244,200.629 198.864 C 200.221 199.483,199.887 200.136,199.887 200.315 C 199.887 200.494,199.712 200.834,199.497 201.072 C 199.124 201.483,199.127 201.519,199.540 201.821 C 200.128 202.252,200.338 202.220,200.338 201.702 C 200.338 201.461,200.429 201.208,200.540 201.139 C 200.651 201.071,200.862 200.515,201.009 199.905 C 201.155 199.295,201.418 198.741,201.594 198.674 C 201.770 198.606,201.913 198.418,201.913 198.256 C 201.913 198.094,202.116 197.788,202.364 197.576 C 202.611 197.364,202.814 196.949,202.814 196.653 C 202.814 196.358,202.966 195.990,203.151 195.836 C 203.337 195.682,203.489 195.382,203.489 195.169 C 203.489 194.957,203.818 194.400,204.221 193.932 C 204.973 193.057,205.140 192.781,206.531 190.096 C 207.868 187.515,208.054 187.175,208.195 187.057 C 208.496 186.806,209.734 184.735,210.753 182.780 C 211.623 181.112,211.899 180.636,212.221 180.248 C 212.623 179.764,213.618 177.844,213.618 177.553 C 213.618 177.416,213.768 177.142,213.952 176.946 C 215.023 175.801,215.419 175.240,215.419 174.869 C 215.419 174.639,215.519 174.451,215.640 174.451 C 215.762 174.451,215.929 174.173,216.012 173.832 C 216.095 173.492,216.350 172.972,216.579 172.676 C 216.808 172.381,216.995 172.000,216.995 171.830 C 216.995 171.660,217.324 171.038,217.727 170.449 C 218.129 169.860,218.711 168.874,219.021 168.257 C 219.330 167.641,219.706 167.035,219.855 166.911 C 220.004 166.787,220.233 166.432,220.365 166.123 C 220.496 165.813,220.803 165.256,221.048 164.885 C 221.292 164.513,221.616 163.956,221.767 163.647 C 221.918 163.337,222.223 162.842,222.445 162.547 C 222.666 162.252,222.847 161.821,222.847 161.590 C 222.847 161.359,222.942 161.171,223.058 161.171 C 223.174 161.171,223.397 160.816,223.553 160.383 C 223.710 159.949,223.907 159.595,223.991 159.595 C 224.076 159.595,224.435 159.012,224.790 158.301 C 225.145 157.589,225.613 156.810,225.830 156.570 C 226.047 156.330,226.224 156.013,226.224 155.866 C 226.224 155.719,226.366 155.480,226.540 155.336 C 226.713 155.192,226.920 154.817,226.999 154.502 C 227.078 154.187,227.238 153.811,227.355 153.667 C 228.457 152.308,228.700 151.942,228.700 151.641 C 228.700 151.449,228.793 151.236,228.906 151.166 C 229.019 151.096,229.338 150.558,229.614 149.971 C 229.891 149.383,230.656 148.081,231.316 147.076 C 231.975 146.072,232.618 145.008,232.745 144.713 C 232.872 144.417,233.077 144.024,233.202 143.838 C 233.326 143.652,233.530 143.247,233.656 142.938 C 233.781 142.628,234.084 142.071,234.328 141.699 C 234.573 141.328,234.944 140.695,235.154 140.293 C 235.364 139.890,235.609 139.561,235.698 139.561 C 235.787 139.561,235.974 139.282,236.114 138.942 C 236.254 138.602,236.774 137.614,237.270 136.747 C 237.765 135.881,238.320 134.842,238.503 134.440 C 238.686 134.038,238.929 133.708,239.042 133.708 C 239.156 133.708,239.320 133.481,239.407 133.202 C 239.494 132.923,239.636 132.645,239.723 132.583 C 239.809 132.521,240.211 131.812,240.616 131.007 C 241.021 130.203,241.493 129.463,241.666 129.364 C 241.839 129.265,241.981 128.999,241.981 128.773 C 241.981 128.546,242.133 128.235,242.319 128.081 C 242.504 127.927,242.656 127.616,242.656 127.389 C 242.656 127.163,242.809 126.893,242.995 126.788 C 243.320 126.606,244.624 124.357,245.149 123.073 C 245.288 122.732,245.491 122.454,245.601 122.454 C 245.711 122.454,245.965 122.074,246.165 121.609 C 246.517 120.790,246.943 119.520,246.861 119.534 C 246.839 119.538,246.650 119.640,246.442 119.762 M249.409 123.779 C 249.409 123.889,249.617 124.219,249.870 124.511 L 250.332 125.042 249.977 124.311 C 249.628 123.591,249.409 123.386,249.409 123.779 M270.118 159.811 C 270.118 160.064,270.213 160.270,270.330 160.270 C 270.703 160.270,270.756 159.942,270.432 159.642 C 270.171 159.401,270.118 159.430,270.118 159.811 M268.639 162.496 C 268.639 162.768,268.782 162.925,269.014 162.908 C 269.466 162.874,269.423 162.210,268.963 162.120 C 268.770 162.082,268.639 162.234,268.639 162.496 M262.701 165.877 C 262.531 166.195,262.544 166.296,262.749 166.265 C 263.482 166.154,263.924 165.447,263.261 165.447 C 263.079 165.447,262.827 165.641,262.701 165.877 " stroke="none" fill="#ccd6ce" fill-rule="evenodd"></path></g></svg>