<svg id="Capa_1" data-name="Capa 1" xmlns="http://www.w3.org/2000/svg" viewBox="0 0 731.56 955.89"><defs><style>.cls-1{fill:#f2e0d5;}.cls-1,.cls-2,.cls-3{opacity:0.5;}.cls-2{fill:#b1d9cd;}.cls-3{fill:#a75c6a;}</style></defs><title>mosaico50</title><polygon class="cls-1" points="140.56 118.83 96.21 118.85 74.01 80.45 96.17 42.03 140.52 42 162.72 80.4 140.56 118.83"/><polygon class="cls-2" points="210.06 159.99 165.71 160.01 143.5 121.61 165.66 83.19 210.01 83.16 232.22 121.56 210.06 159.99"/><polygon class="cls-3" points="280.56 118.83 236.21 118.85 214 80.45 236.16 42.03 280.51 42 302.71 80.4 280.56 118.83"/><polygon class="cls-1" points="494.31 243.74 449.96 243.76 427.76 205.36 449.91 166.94 494.27 166.91 516.47 205.31 494.31 243.74"/><polygon class="cls-3" points="422.56 202.16 378.2 202.18 356 163.78 378.16 125.36 422.51 125.33 444.71 163.73 422.56 202.16"/><polygon class="cls-1" points="494.31 659.53 449.96 659.56 427.76 621.16 449.91 582.73 494.27 582.71 516.47 621.11 494.31 659.53"/><polygon class="cls-2" points="637.06 159.99 592.71 160.01 570.5 121.61 592.66 83.19 637.01 83.16 659.22 121.56 637.06 159.99"/><polygon class="cls-3" points="708.56 118.83 664.21 118.85 642 80.45 664.16 42.03 708.51 42 730.72 80.4 708.56 118.83"/><polygon class="cls-2" points="637.06 76.83 592.71 76.85 570.5 38.45 592.66 0.03 637.01 0 659.22 38.4 637.06 76.83"/><polygon class="cls-3" points="422.56 119 378.2 119.02 356 80.62 378.16 42.2 422.51 42.17 444.71 80.57 422.56 119"/><polygon class="cls-1" points="494.31 160.58 449.96 160.6 427.76 122.2 449.91 83.78 494.27 83.75 516.47 122.15 494.31 160.58"/><polygon class="cls-2" points="210.06 76.99 165.71 77.01 143.5 38.61 165.66 0.19 210.01 0.16 232.22 38.56 210.06 76.99"/><polygon class="cls-1" points="210.06 243.83 165.71 243.85 143.5 205.45 165.66 167.03 210.01 167 232.22 205.4 210.06 243.83"/><polygon class="cls-1" points="210.06 327.67 165.71 327.69 143.5 289.29 165.66 250.87 210.01 250.84 232.22 289.24 210.06 327.67"/><polygon class="cls-3" points="138.57 202.33 94.22 202.35 72.02 163.95 94.17 125.53 138.53 125.5 160.72 163.9 138.57 202.33"/><polygon class="cls-3" points="138.57 285.83 94.22 285.85 72.02 247.45 94.17 209.03 138.53 209 160.72 247.4 138.57 285.83"/><polygon class="cls-2" points="280.56 285.83 236.21 285.85 214 247.45 236.16 209.03 280.51 209 302.71 247.4 280.56 285.83"/><polygon class="cls-2" points="280.56 369.33 236.21 369.35 214 330.95 236.16 292.53 280.51 292.5 302.71 330.9 280.56 369.33"/><polygon class="cls-3" points="210.06 411.51 165.71 411.53 143.5 373.13 165.66 334.71 210.01 334.68 232.22 373.08 210.06 411.51"/><polygon class="cls-3" points="210.06 495.35 165.71 495.37 143.5 456.97 165.66 418.55 210.01 418.52 232.22 456.92 210.06 495.35"/><polygon class="cls-1" points="280.56 453.01 236.21 453.03 214 414.63 236.16 376.21 280.51 376.18 302.71 414.58 280.56 453.01"/><polygon class="cls-1" points="280.56 537.19 236.21 537.21 214 498.81 236.16 460.39 280.51 460.36 302.71 498.76 280.56 537.19"/><polygon class="cls-2" points="138.57 369.33 94.22 369.35 72.02 330.95 94.17 292.53 138.53 292.5 160.72 330.9 138.57 369.33"/><polygon class="cls-2" points="138.57 452.83 94.22 452.85 72.02 414.45 94.17 376.03 138.53 376 160.72 414.4 138.57 452.83"/><polygon class="cls-1" points="138.57 536.33 94.22 536.35 72.02 497.95 94.17 459.53 138.53 459.5 160.72 497.9 138.57 536.33"/><polygon class="cls-1" points="138.57 620.51 94.22 620.53 72.02 582.13 94.17 543.71 138.53 543.68 160.72 582.08 138.57 620.51"/><polygon class="cls-2" points="210.06 577.99 165.71 578.01 143.5 539.61 165.66 501.19 210.01 501.16 232.22 539.56 210.06 577.99"/><polygon class="cls-2" points="210.06 661.49 165.71 661.51 143.5 623.11 165.66 584.69 210.01 584.66 232.22 623.06 210.06 661.49"/><polygon class="cls-3" points="138.57 704.69 94.22 704.71 72.02 666.31 94.17 627.89 138.53 627.86 160.72 666.26 138.57 704.69"/><polygon class="cls-3" points="138.57 788.53 94.22 788.55 72.02 750.15 94.17 711.73 138.53 711.7 160.72 750.1 138.57 788.53"/><polygon class="cls-1" points="210.06 745.67 165.71 745.69 143.5 707.29 165.66 668.87 210.01 668.84 232.22 707.24 210.06 745.67"/><polygon class="cls-1" points="210.06 829.51 165.71 829.53 143.5 791.13 165.66 752.71 210.01 752.68 232.22 791.08 210.06 829.51"/><polygon class="cls-3" points="210.06 913.35 165.71 913.37 143.5 874.97 165.66 836.55 210.01 836.52 232.22 874.92 210.06 913.35"/><polygon class="cls-2" points="138.57 872.37 94.22 872.39 72.02 833.99 94.17 795.57 138.53 795.54 160.72 833.94 138.57 872.37"/><polygon class="cls-2" points="138.57 955.87 94.22 955.89 72.02 917.49 94.17 879.07 138.53 879.04 160.72 917.44 138.57 955.87"/><polygon class="cls-3" points="280.56 620.33 236.21 620.35 214 581.95 236.16 543.53 280.51 543.5 302.71 581.9 280.56 620.33"/><polygon class="cls-3" points="280.56 703.83 236.21 703.85 214 665.45 236.16 627.03 280.51 627 302.71 665.4 280.56 703.83"/><polygon class="cls-2" points="280.56 787.33 236.21 787.35 214 748.95 236.16 710.53 280.51 710.5 302.71 748.9 280.56 787.33"/><polygon class="cls-2" points="280.56 870.83 236.21 870.85 214 832.45 236.16 794.03 280.51 794 302.71 832.4 280.56 870.83"/><polygon class="cls-1" points="280.56 954.51 236.21 954.53 214 916.13 236.16 877.71 280.51 877.68 302.71 916.08 280.56 954.51"/><polygon class="cls-2" points="351.56 77.08 307.21 77.1 285.01 38.7 307.17 0.28 351.52 0.25 373.72 38.65 351.56 77.08"/><polygon class="cls-1" points="351.56 244.85 307.21 244.87 285.01 206.47 307.17 168.05 351.52 168.02 373.72 206.42 351.56 244.85"/><polygon class="cls-1" points="351.56 161.69 307.21 161.71 285.01 123.31 307.17 84.89 351.52 84.86 373.72 123.26 351.56 161.69"/><polygon class="cls-3" points="351.56 411.17 307.21 411.19 285.01 372.79 307.17 334.37 351.52 334.34 373.72 372.74 351.56 411.17"/><polygon class="cls-3" points="351.56 328.01 307.21 328.03 285.01 289.63 307.17 251.21 351.52 251.18 373.72 289.58 351.56 328.01"/><polygon class="cls-2" points="351.56 494.33 307.21 494.35 285.01 455.95 307.17 417.53 351.52 417.5 373.72 455.9 351.56 494.33"/><polygon class="cls-2" points="351.56 577.83 307.21 577.85 285.01 539.45 307.17 501.03 351.52 501 373.72 539.4 351.56 577.83"/><polygon class="cls-1" points="351.56 826.87 307.21 826.9 285.01 788.5 307.17 750.07 351.52 750.05 373.72 788.45 351.56 826.87"/><polygon class="cls-1" points="351.56 661.33 307.21 661.35 285.01 622.95 307.17 584.53 351.52 584.5 373.72 622.9 351.56 661.33"/><polygon class="cls-3" points="351.56 910.03 307.21 910.06 285.01 871.66 307.17 833.23 351.52 833.21 373.72 871.61 351.56 910.03"/><polygon class="cls-2" points="494.31 576.37 449.96 576.4 427.76 538 449.91 499.57 494.27 499.55 516.47 537.95 494.31 576.37"/><polygon class="cls-2" points="494.31 493.21 449.96 493.24 427.76 454.84 449.91 416.42 494.27 416.39 516.47 454.79 494.31 493.21"/><polygon class="cls-2" points="422.56 368.48 378.2 368.5 356 330.1 378.16 291.68 422.51 291.65 444.71 330.05 422.56 368.48"/><polygon class="cls-2" points="422.56 285.32 378.2 285.34 356 246.94 378.16 208.52 422.51 208.49 444.71 246.89 422.56 285.32"/><polygon class="cls-2" points="494.31 77.08 449.96 77.1 427.76 38.7 449.91 0.28 494.27 0.25 516.47 38.65 494.31 77.08"/><polygon class="cls-3" points="494.31 410.06 449.96 410.08 427.76 371.68 449.91 333.25 494.27 333.23 516.47 371.63 494.31 410.06"/><polygon class="cls-3" points="494.31 326.9 449.96 326.92 427.76 288.52 449.91 250.1 494.27 250.07 516.47 288.47 494.31 326.9"/><polygon class="cls-1" points="422.56 451.12 378.2 451.15 356 412.75 378.16 374.32 422.51 374.3 444.71 412.7 422.56 451.12"/><polygon class="cls-1" points="422.56 535.3 378.2 535.33 356 496.93 378.16 458.5 422.51 458.48 444.71 496.88 422.56 535.3"/><polygon class="cls-3" points="422.55 619 378.19 619.03 356 580.63 378.15 542.2 422.5 542.18 444.7 580.58 422.55 619"/><polygon class="cls-3" points="422.55 702.5 378.19 702.53 356 664.13 378.15 625.7 422.5 625.68 444.7 664.08 422.55 702.5"/><polygon class="cls-2" points="422.55 786 378.19 786.03 356 747.63 378.15 709.2 422.5 709.18 444.7 747.58 422.55 786"/><polygon class="cls-2" points="422.55 869.5 378.19 869.53 356 831.13 378.15 792.7 422.5 792.68 444.7 831.08 422.55 869.5"/><polygon class="cls-1" points="494.31 743.12 449.96 743.14 427.76 704.74 449.91 666.32 494.27 666.29 516.47 704.69 494.31 743.12"/><polygon class="cls-3" points="494.31 827.18 449.96 827.2 427.76 788.8 449.91 750.38 494.27 750.35 516.47 788.75 494.31 827.18"/><polygon class="cls-3" points="494.31 910.68 449.96 910.7 427.76 872.3 449.91 833.88 494.27 833.85 516.47 872.25 494.31 910.68"/><polygon class="cls-3" points="565.56 118.49 521.21 118.51 499 80.11 521.16 41.69 565.51 41.66 587.72 80.06 565.56 118.49"/><polygon class="cls-1" points="422.56 951.77 378.2 951.8 356 913.4 378.16 874.97 422.51 874.95 444.71 913.35 422.56 951.77"/><polygon class="cls-3" points="565.56 201.86 521.21 201.88 499 163.49 521.16 125.06 565.51 125.03 587.72 163.43 565.56 201.86"/><polygon class="cls-1" points="565.56 451.33 521.21 451.36 499 412.96 521.16 374.53 565.51 374.5 587.72 412.9 565.56 451.33"/><polygon class="cls-1" points="565.56 368.17 521.21 368.2 499 329.8 521.16 291.37 565.51 291.35 587.72 329.75 565.56 368.17"/><polygon class="cls-2" points="67.56 245.45 23.2 245.47 1 207.07 23.16 168.65 67.51 168.62 89.71 207.02 67.56 245.45"/><polygon class="cls-2" points="67.56 162.45 23.2 162.47 1 124.07 23.16 85.65 67.51 85.62 89.71 124.02 67.56 162.45"/><polygon class="cls-1" points="67.56 329.29 23.2 329.31 1 290.91 23.16 252.49 67.51 252.46 89.71 290.86 67.56 329.29"/><polygon class="cls-1" points="67.56 413.13 23.2 413.15 1 374.75 23.16 336.33 67.51 336.3 89.71 374.7 67.56 413.13"/><polygon class="cls-3" points="67.56 496.97 23.2 496.99 1 458.59 23.16 420.17 67.51 420.14 89.71 458.54 67.56 496.97"/><polygon class="cls-3" points="67.56 580.81 23.2 580.84 1 542.43 23.16 504.01 67.51 503.98 89.71 542.38 67.56 580.81"/><polygon class="cls-3" points="66.56 78.83 22.2 78.85 0 40.45 22.16 2.03 66.51 2 88.71 40.4 66.56 78.83"/><polygon class="cls-2" points="66.81 744.65 22.45 744.67 0.25 706.27 22.41 667.85 66.76 667.82 88.96 706.22 66.81 744.65"/><polygon class="cls-2" points="66.81 661.65 22.45 661.67 0.25 623.27 22.41 584.85 66.76 584.82 88.96 623.22 66.81 661.65"/><polygon class="cls-1" points="66.81 828.49 22.45 828.51 0.25 790.11 22.41 751.69 66.76 751.66 88.96 790.06 66.81 828.49"/><polygon class="cls-1" points="66.81 912.33 22.45 912.35 0.25 873.95 22.41 835.53 66.76 835.5 88.96 873.9 66.81 912.33"/><polygon class="cls-3" points="565.98 534.84 521.62 534.86 499.42 496.46 521.58 458.04 565.93 458.01 588.13 496.41 565.98 534.84"/><polygon class="cls-3" points="565.98 618.34 521.62 618.36 499.42 579.96 521.58 541.53 565.93 541.51 588.13 579.91 565.98 618.34"/><polygon class="cls-1" points="565.98 867.74 521.62 867.76 499.42 829.36 521.58 790.94 565.93 790.91 588.13 829.31 565.98 867.74"/><polygon class="cls-2" points="565.98 784.58 521.62 784.6 499.42 746.2 521.58 707.78 565.93 707.75 588.13 746.15 565.98 784.58"/><polygon class="cls-2" points="565.98 701.42 521.62 701.44 499.42 663.04 521.58 624.62 565.93 624.59 588.13 662.99 565.98 701.42"/><polygon class="cls-1" points="565.98 951.32 521.62 951.34 499.42 912.94 521.58 874.52 565.93 874.49 588.13 912.89 565.98 951.32"/><polygon class="cls-3" points="637.06 326.42 592.71 326.45 570.5 288.05 592.66 249.62 637.01 249.6 659.22 288 637.06 326.42"/><polygon class="cls-3" points="637.06 409.92 592.71 409.95 570.5 371.55 592.66 333.12 637.01 333.1 659.22 371.5 637.06 409.92"/><polygon class="cls-1" points="637.06 659.7 592.71 659.73 570.5 621.33 592.66 582.9 637.01 582.88 659.22 621.28 637.06 659.7"/><polygon class="cls-2" points="637.06 576.54 592.71 576.57 570.5 538.17 592.66 499.75 637.01 499.72 659.22 538.12 637.06 576.54"/><polygon class="cls-2" points="637.06 493.38 592.71 493.41 570.5 455.01 592.66 416.58 637.01 416.56 659.22 454.96 637.06 493.38"/><polygon class="cls-1" points="637.06 743.28 592.71 743.31 570.5 704.91 592.66 666.49 637.01 666.46 659.22 704.86 637.06 743.28"/><polygon class="cls-3" points="636.32 826.87 591.97 826.89 569.77 788.49 591.92 750.07 636.28 750.04 658.48 788.44 636.32 826.87"/><polygon class="cls-3" points="636.32 910.37 591.97 910.39 569.77 871.99 591.92 833.57 636.28 833.54 658.48 871.94 636.32 910.37"/><polygon class="cls-1" points="708.56 285.32 664.21 285.34 642 246.94 664.16 208.52 708.51 208.49 730.72 246.89 708.56 285.32"/><polygon class="cls-1" points="708.56 202.16 664.21 202.18 642 163.78 664.16 125.36 708.51 125.33 730.72 163.73 708.56 202.16"/><polygon class="cls-2" points="708.56 787.33 664.21 787.35 642 748.95 664.16 710.53 708.51 710.5 730.72 748.9 708.56 787.33"/><polygon class="cls-2" points="708.56 368.34 664.21 368.37 642 329.97 664.16 291.54 708.51 291.52 730.72 329.92 708.56 368.34"/><polygon class="cls-1" points="709.41 534.97 665.05 534.99 642.85 496.59 665.01 458.17 709.36 458.14 731.56 496.54 709.41 534.97"/><polygon class="cls-1" points="709.41 451.81 665.05 451.83 642.85 413.43 665.01 375 709.36 374.98 731.56 413.38 709.41 451.81"/><polygon class="cls-3" points="709.41 619.9 665.05 619.92 642.85 581.52 665.01 543.1 709.36 543.07 731.56 581.47 709.41 619.9"/><polygon class="cls-3" points="709.41 703.4 665.05 703.42 642.85 665.02 665.01 626.6 709.36 626.57 731.56 664.97 709.41 703.4"/><polygon class="cls-2" points="708.56 868.24 664.21 868.26 642 829.86 664.16 791.43 708.51 791.41 730.72 829.81 708.56 868.24"/><polygon class="cls-1" points="708.56 951.35 664.21 951.38 642 912.98 664.16 874.55 708.51 874.53 730.72 912.93 708.56 951.35"/></svg>