<svg id="Capa_1" data-name="Capa 1" xmlns="http://www.w3.org/2000/svg" viewBox="0 0 955.89 731.56"><defs><style>.cls-1{fill:#f2e8e1;}.cls-1,.cls-2,.cls-3{opacity:0.8;}.cls-2{fill:#b9d9cf;}.cls-3{fill:#a6898e;}</style></defs><title>mosaicodef</title><polygon class="cls-1" points="118.83 591 118.85 635.35 80.45 657.55 42.03 635.4 42 591.04 80.4 568.84 118.83 591"/><polygon class="cls-2" points="159.99 521.5 160.01 565.86 121.61 588.06 83.19 565.9 83.16 521.55 121.56 499.35 159.99 521.5"/><polygon class="cls-3" points="118.83 451 118.85 495.36 80.45 517.56 42.03 495.4 42 451.05 80.4 428.85 118.83 451"/><polygon class="cls-1" points="243.74 237.25 243.76 281.61 205.36 303.81 166.94 281.65 166.91 237.3 205.31 215.1 243.74 237.25"/><polygon class="cls-3" points="202.16 309 202.18 353.36 163.78 375.56 125.36 353.4 125.33 309.05 163.73 286.85 202.16 309"/><polygon class="cls-1" points="659.53 237.25 659.56 281.61 621.16 303.81 582.73 281.65 582.71 237.3 621.11 215.1 659.53 237.25"/><polygon class="cls-2" points="159.99 94.5 160.01 138.86 121.61 161.06 83.19 138.9 83.16 94.55 121.56 72.35 159.99 94.5"/><polygon class="cls-3" points="118.83 23 118.85 67.36 80.45 89.56 42.03 67.4 42 23.05 80.4 0.85 118.83 23"/><polygon class="cls-2" points="76.83 94.5 76.85 138.86 38.45 161.06 0.03 138.9 0 94.55 38.4 72.35 76.83 94.5"/><polygon class="cls-3" points="119 309 119.02 353.36 80.62 375.56 42.2 353.4 42.17 309.05 80.57 286.85 119 309"/><polygon class="cls-1" points="160.58 237.25 160.6 281.61 122.2 303.81 83.78 281.65 83.75 237.3 122.15 215.1 160.58 237.25"/><polygon class="cls-2" points="76.99 521.5 77.01 565.86 38.61 588.06 0.19 565.9 0.16 521.55 38.56 499.35 76.99 521.5"/><polygon class="cls-1" points="243.83 521.5 243.85 565.86 205.45 588.06 167.03 565.9 167 521.55 205.4 499.35 243.83 521.5"/><polygon class="cls-1" points="327.67 521.5 327.69 565.86 289.29 588.06 250.87 565.9 250.84 521.55 289.24 499.35 327.67 521.5"/><polygon class="cls-3" points="202.33 592.99 202.35 637.35 163.95 659.55 125.53 637.39 125.5 593.04 163.9 570.84 202.33 592.99"/><polygon class="cls-3" points="285.83 592.99 285.85 637.35 247.45 659.55 209.03 637.39 209 593.04 247.4 570.84 285.83 592.99"/><polygon class="cls-2" points="285.83 451 285.85 495.36 247.45 517.56 209.03 495.4 209 451.05 247.4 428.85 285.83 451"/><polygon class="cls-2" points="369.33 451 369.35 495.36 330.95 517.56 292.53 495.4 292.5 451.05 330.9 428.85 369.33 451"/><polygon class="cls-3" points="411.51 521.5 411.53 565.86 373.13 588.06 334.71 565.9 334.68 521.55 373.08 499.35 411.51 521.5"/><polygon class="cls-3" points="495.35 521.5 495.37 565.86 456.97 588.06 418.55 565.9 418.52 521.55 456.92 499.35 495.35 521.5"/><polygon class="cls-1" points="453.01 451 453.03 495.36 414.63 517.56 376.21 495.4 376.18 451.05 414.58 428.85 453.01 451"/><polygon class="cls-1" points="537.19 451 537.21 495.36 498.81 517.56 460.39 495.4 460.36 451.05 498.76 428.85 537.19 451"/><polygon class="cls-2" points="369.33 592.99 369.35 637.35 330.95 659.55 292.53 637.39 292.5 593.04 330.9 570.84 369.33 592.99"/><polygon class="cls-2" points="452.83 592.99 452.85 637.35 414.45 659.55 376.03 637.39 376 593.04 414.4 570.84 452.83 592.99"/><polygon class="cls-1" points="536.33 592.99 536.35 637.35 497.95 659.55 459.53 637.39 459.5 593.04 497.9 570.84 536.33 592.99"/><polygon class="cls-1" points="620.51 592.99 620.53 637.35 582.13 659.55 543.71 637.39 543.68 593.04 582.08 570.84 620.51 592.99"/><polygon class="cls-2" points="577.99 521.5 578.01 565.86 539.61 588.06 501.19 565.9 501.16 521.55 539.56 499.35 577.99 521.5"/><polygon class="cls-2" points="661.49 521.5 661.51 565.86 623.11 588.06 584.69 565.9 584.66 521.55 623.06 499.35 661.49 521.5"/><polygon class="cls-3" points="704.69 592.99 704.71 637.35 666.31 659.55 627.89 637.39 627.86 593.04 666.26 570.84 704.69 592.99"/><polygon class="cls-3" points="788.53 592.99 788.55 637.35 750.15 659.55 711.73 637.39 711.7 593.04 750.1 570.84 788.53 592.99"/><polygon class="cls-1" points="745.67 521.5 745.69 565.86 707.29 588.06 668.87 565.9 668.84 521.55 707.24 499.35 745.67 521.5"/><polygon class="cls-1" points="829.51 521.5 829.53 565.86 791.13 588.06 752.71 565.9 752.68 521.55 791.08 499.35 829.51 521.5"/><polygon class="cls-3" points="913.35 521.5 913.37 565.86 874.97 588.06 836.55 565.9 836.52 521.55 874.92 499.35 913.35 521.5"/><polygon class="cls-2" points="872.37 592.99 872.39 637.35 833.99 659.55 795.57 637.39 795.54 593.04 833.94 570.84 872.37 592.99"/><polygon class="cls-2" points="955.87 592.99 955.89 637.35 917.49 659.55 879.07 637.39 879.04 593.04 917.44 570.84 955.87 592.99"/><polygon class="cls-3" points="620.33 451 620.35 495.36 581.95 517.56 543.53 495.4 543.5 451.05 581.9 428.85 620.33 451"/><polygon class="cls-3" points="703.83 451 703.85 495.36 665.45 517.56 627.03 495.4 627 451.05 665.4 428.85 703.83 451"/><polygon class="cls-2" points="787.33 451 787.35 495.36 748.95 517.56 710.53 495.4 710.5 451.05 748.9 428.85 787.33 451"/><polygon class="cls-2" points="870.83 451 870.85 495.36 832.45 517.56 794.03 495.4 794 451.05 832.4 428.85 870.83 451"/><polygon class="cls-1" points="954.51 451 954.53 495.36 916.13 517.56 877.71 495.4 877.68 451.05 916.08 428.85 954.51 451"/><polygon class="cls-2" points="77.08 380 77.1 424.35 38.7 446.55 0.28 424.4 0.25 380.04 38.65 357.84 77.08 380"/><polygon class="cls-1" points="244.85 380 244.87 424.35 206.47 446.55 168.05 424.4 168.02 380.04 206.42 357.84 244.85 380"/><polygon class="cls-1" points="161.69 380 161.71 424.35 123.31 446.55 84.89 424.4 84.86 380.04 123.26 357.84 161.69 380"/><polygon class="cls-3" points="411.17 380 411.19 424.35 372.79 446.55 334.37 424.4 334.34 380.04 372.74 357.84 411.17 380"/><polygon class="cls-3" points="328.01 380 328.03 424.35 289.63 446.55 251.21 424.4 251.18 380.04 289.58 357.84 328.01 380"/><polygon class="cls-2" points="494.33 380 494.35 424.35 455.95 446.55 417.53 424.4 417.5 380.04 455.9 357.84 494.33 380"/><polygon class="cls-2" points="577.83 380 577.85 424.35 539.45 446.55 501.03 424.4 501 380.04 539.4 357.84 577.83 380"/><polygon class="cls-1" points="826.87 380 826.9 424.35 788.5 446.55 750.07 424.4 750.05 380.04 788.45 357.84 826.87 380"/><polygon class="cls-1" points="661.33 380 661.35 424.35 622.95 446.55 584.53 424.4 584.5 380.04 622.9 357.84 661.33 380"/><polygon class="cls-3" points="910.03 380 910.06 424.35 871.66 446.55 833.23 424.4 833.21 380.04 871.61 357.84 910.03 380"/><polygon class="cls-2" points="576.37 237.25 576.4 281.61 538 303.81 499.57 281.65 499.55 237.3 537.95 215.1 576.37 237.25"/><polygon class="cls-2" points="493.21 237.25 493.24 281.61 454.84 303.81 416.42 281.65 416.39 237.3 454.79 215.1 493.21 237.25"/><polygon class="cls-2" points="368.48 309 368.5 353.36 330.1 375.56 291.68 353.4 291.65 309.05 330.05 286.85 368.48 309"/><polygon class="cls-2" points="285.32 309 285.34 353.36 246.94 375.56 208.52 353.4 208.49 309.05 246.89 286.85 285.32 309"/><polygon class="cls-2" points="77.08 237.25 77.1 281.61 38.7 303.81 0.28 281.65 0.25 237.3 38.65 215.1 77.08 237.25"/><polygon class="cls-3" points="410.06 237.25 410.08 281.61 371.68 303.81 333.25 281.65 333.23 237.3 371.63 215.1 410.06 237.25"/><polygon class="cls-3" points="326.9 237.25 326.92 281.61 288.52 303.81 250.1 281.65 250.07 237.3 288.47 215.1 326.9 237.25"/><polygon class="cls-1" points="451.12 309 451.15 353.36 412.75 375.56 374.32 353.4 374.3 309.05 412.7 286.85 451.12 309"/><polygon class="cls-1" points="535.3 309 535.33 353.36 496.93 375.56 458.5 353.4 458.48 309.05 496.88 286.85 535.3 309"/><polygon class="cls-3" points="619 309.01 619.03 353.37 580.63 375.57 542.2 353.41 542.18 309.06 580.58 286.86 619 309.01"/><polygon class="cls-3" points="702.5 309.01 702.53 353.37 664.13 375.57 625.7 353.41 625.68 309.06 664.08 286.86 702.5 309.01"/><polygon class="cls-2" points="786 309.01 786.03 353.37 747.63 375.57 709.2 353.41 709.18 309.06 747.58 286.86 786 309.01"/><polygon class="cls-2" points="869.5 309.01 869.53 353.37 831.13 375.57 792.7 353.41 792.68 309.06 831.08 286.86 869.5 309.01"/><polygon class="cls-1" points="743.12 237.25 743.14 281.61 704.74 303.81 666.32 281.65 666.29 237.3 704.69 215.1 743.12 237.25"/><polygon class="cls-3" points="827.18 237.25 827.2 281.61 788.8 303.81 750.38 281.65 750.35 237.3 788.75 215.1 827.18 237.25"/><polygon class="cls-3" points="910.68 237.25 910.7 281.61 872.3 303.81 833.88 281.65 833.85 237.3 872.25 215.1 910.68 237.25"/><polygon class="cls-3" points="118.49 166 118.51 210.36 80.11 232.56 41.69 210.4 41.66 166.05 80.06 143.85 118.49 166"/><polygon class="cls-1" points="951.77 309 951.8 353.36 913.4 375.56 874.97 353.4 874.95 309.05 913.35 286.85 951.77 309"/><polygon class="cls-3" points="201.86 166 201.88 210.36 163.49 232.56 125.06 210.4 125.03 166.05 163.43 143.85 201.86 166"/><polygon class="cls-1" points="451.33 166 451.36 210.36 412.96 232.56 374.53 210.4 374.5 166.05 412.9 143.85 451.33 166"/><polygon class="cls-1" points="368.17 166 368.2 210.36 329.8 232.56 291.37 210.4 291.35 166.05 329.75 143.85 368.17 166"/><polygon class="cls-2" points="245.45 664.01 245.47 708.36 207.07 730.56 168.65 708.41 168.62 664.05 207.02 641.85 245.45 664.01"/><polygon class="cls-2" points="162.45 664.01 162.47 708.36 124.07 730.56 85.65 708.41 85.62 664.05 124.02 641.85 162.45 664.01"/><polygon class="cls-1" points="329.29 664.01 329.31 708.36 290.91 730.56 252.49 708.41 252.46 664.05 290.86 641.85 329.29 664.01"/><polygon class="cls-1" points="413.13 664.01 413.15 708.36 374.75 730.56 336.33 708.41 336.3 664.05 374.7 641.85 413.13 664.01"/><polygon class="cls-3" points="496.97 664.01 496.99 708.36 458.59 730.56 420.17 708.41 420.14 664.05 458.54 641.85 496.97 664.01"/><polygon class="cls-3" points="580.81 664.01 580.84 708.36 542.43 730.56 504.01 708.41 503.98 664.05 542.38 641.85 580.81 664.01"/><polygon class="cls-3" points="78.83 665.01 78.85 709.36 40.45 731.56 2.03 709.41 2 665.05 40.4 642.85 78.83 665.01"/><polygon class="cls-2" points="744.65 664.76 744.67 709.11 706.27 731.31 667.85 709.16 667.82 664.8 706.22 642.6 744.65 664.76"/><polygon class="cls-2" points="661.65 664.76 661.67 709.11 623.27 731.31 584.85 709.16 584.82 664.8 623.22 642.6 661.65 664.76"/><polygon class="cls-1" points="828.49 664.76 828.51 709.11 790.11 731.31 751.69 709.16 751.66 664.8 790.06 642.6 828.49 664.76"/><polygon class="cls-1" points="912.33 664.76 912.35 709.11 873.95 731.31 835.53 709.16 835.5 664.8 873.9 642.6 912.33 664.76"/><polygon class="cls-3" points="534.84 165.58 534.86 209.94 496.46 232.14 458.04 209.98 458.01 165.63 496.41 143.43 534.84 165.58"/><polygon class="cls-3" points="618.34 165.58 618.36 209.94 579.96 232.14 541.53 209.98 541.51 165.63 579.91 143.43 618.34 165.58"/><polygon class="cls-1" points="867.74 165.58 867.76 209.94 829.36 232.14 790.94 209.98 790.91 165.63 829.31 143.43 867.74 165.58"/><polygon class="cls-2" points="784.58 165.58 784.6 209.94 746.2 232.14 707.78 209.98 707.75 165.63 746.15 143.43 784.58 165.58"/><polygon class="cls-2" points="701.42 165.58 701.44 209.94 663.04 232.14 624.62 209.98 624.59 165.63 662.99 143.43 701.42 165.58"/><polygon class="cls-1" points="951.32 165.58 951.34 209.94 912.94 232.14 874.52 209.98 874.49 165.63 912.89 143.43 951.32 165.58"/><polygon class="cls-3" points="326.42 94.5 326.45 138.86 288.05 161.06 249.62 138.9 249.6 94.55 288 72.35 326.42 94.5"/><polygon class="cls-3" points="409.92 94.5 409.95 138.86 371.55 161.06 333.12 138.9 333.1 94.55 371.5 72.35 409.92 94.5"/><polygon class="cls-1" points="659.7 94.5 659.73 138.86 621.33 161.06 582.9 138.9 582.88 94.55 621.28 72.35 659.7 94.5"/><polygon class="cls-2" points="576.54 94.5 576.57 138.86 538.17 161.06 499.75 138.9 499.72 94.55 538.12 72.35 576.54 94.5"/><polygon class="cls-2" points="493.38 94.5 493.41 138.86 455.01 161.06 416.58 138.9 416.56 94.55 454.96 72.35 493.38 94.5"/><polygon class="cls-1" points="743.28 94.5 743.31 138.86 704.91 161.06 666.49 138.9 666.46 94.55 704.86 72.35 743.28 94.5"/><polygon class="cls-3" points="826.87 95.24 826.89 139.6 788.49 161.8 750.07 139.64 750.04 95.29 788.44 73.09 826.87 95.24"/><polygon class="cls-3" points="910.37 95.24 910.39 139.6 871.99 161.8 833.57 139.64 833.54 95.29 871.94 73.09 910.37 95.24"/><polygon class="cls-1" points="285.32 23 285.34 67.36 246.94 89.56 208.52 67.4 208.49 23.05 246.89 0.85 285.32 23"/><polygon class="cls-1" points="202.16 23 202.18 67.36 163.78 89.56 125.36 67.4 125.33 23.05 163.73 0.85 202.16 23"/><polygon class="cls-2" points="787.33 23 787.35 67.36 748.95 89.56 710.53 67.4 710.5 23.05 748.9 0.85 787.33 23"/><polygon class="cls-2" points="368.34 23 368.37 67.36 329.97 89.56 291.54 67.4 291.52 23.05 329.92 0.85 368.34 23"/><polygon class="cls-1" points="534.97 22.16 534.99 66.51 496.59 88.71 458.17 66.56 458.14 22.2 496.54 0 534.97 22.16"/><polygon class="cls-1" points="451.81 22.16 451.83 66.51 413.43 88.71 375 66.56 374.98 22.2 413.38 0 451.81 22.16"/><polygon class="cls-3" points="619.9 22.16 619.92 66.51 581.52 88.71 543.1 66.56 543.07 22.2 581.47 0 619.9 22.16"/><polygon class="cls-3" points="703.4 22.16 703.42 66.51 665.02 88.71 626.6 66.56 626.57 22.2 664.97 0 703.4 22.16"/><polygon class="cls-2" points="868.24 23 868.26 67.36 829.86 89.56 791.43 67.4 791.41 23.05 829.81 0.85 868.24 23"/><polygon class="cls-1" points="951.35 23 951.38 67.36 912.98 89.56 874.55 67.4 874.53 23.05 912.93 0.85 951.35 23"/></svg>